<svg width="700" height="700" viewBox="0 0 700 700" fill="none" xmlns="http://www.w3.org/2000/svg">
<g filter="url(#filter0_f_99_94)">
<path fill-rule="evenodd" clip-rule="evenodd" d="M403.667 334.513V334.513L403.862 335.151L404.049 335.793L404.228 336.439L404.4 337.09L404.563 337.745L404.719 338.403L404.866 339.066L405.005 339.733L405.135 340.403L405.257 341.076L405.37 341.753L405.474 342.434L405.569 343.117L405.655 343.804L405.732 344.493L405.799 345.185L405.857 345.879L405.905 346.576L405.944 347.275L405.972 347.976L405.991 348.68L406 349.384L405.999 350.091L405.988 350.799L405.966 351.508L405.935 352.218L405.893 352.929L405.841 353.641L405.778 354.353L405.705 355.066L405.622 355.779L405.528 356.492L405.424 357.205L405.31 357.917L405.185 358.629L405.049 359.341L404.903 360.052L404.747 360.762L404.58 361.47L404.403 362.178L404.215 362.884L404.017 363.588L403.809 364.291L403.59 364.991L403.362 365.69L403.123 366.386L402.873 367.08L402.614 367.771L402.345 368.46L402.065 369.146L401.776 369.829L401.476 370.508L401.167 371.185L400.848 371.857L400.519 372.526L400.18 373.192L399.832 373.853L399.474 374.511L399.106 375.164L398.729 375.812L398.343 376.456L397.947 377.096L397.541 377.73L397.127 378.36L396.703 378.985L396.271 379.604L395.829 380.218L395.379 380.827L394.92 381.43L394.452 382.027L393.976 382.619L393.492 383.205L392.999 383.784L392.498 384.358L391.988 384.925L391.471 385.486L390.946 386.041L390.413 386.589L389.872 387.131L389.324 387.666L388.769 388.194L388.206 388.715L387.635 389.229L387.058 389.736L386.473 390.236L385.882 390.729L385.284 391.214L384.679 391.692L384.067 392.162L383.449 392.625L382.825 393.08L382.194 393.527L381.557 393.966L380.914 394.397L380.265 394.82L379.61 395.235L378.95 395.642L378.284 396.04L377.612 396.43L376.935 396.811L376.252 397.183L375.564 397.547L374.872 397.902L374.174 398.247L373.471 398.584L372.764 398.911L372.052 399.229L371.335 399.538L370.614 399.837L369.889 400.127L369.16 400.406L368.427 400.676L367.69 400.936L366.949 401.187L366.205 401.427L365.458 401.656L364.707 401.876L363.953 402.085L363.196 402.284L362.436 402.472L361.673 402.649L360.908 402.816L360.141 402.972L359.371 403.118L358.6 403.252L357.826 403.376L357.051 403.488L356.274 403.589L355.496 403.68L354.717 403.759L353.937 403.827L353.156 403.884L352.375 403.93L351.593 403.964L350.81 403.987L350.028 403.999L349.245 404L348.463 403.99L347.682 403.968L346.901 403.935L346.12 403.891L345.341 403.836L344.563 403.769L343.786 403.692L343.011 403.603L342.237 403.504L341.465 403.394L340.696 403.272L339.928 403.14L339.163 402.997L338.4 402.844L337.64 402.68L336.882 402.505L336.128 402.32L335.377 402.124L334.629 401.918L333.885 401.703L333.144 401.477L332.407 401.241L331.673 400.995L330.944 400.739L330.219 400.474L329.498 400.199L328.781 399.915L328.069 399.622L327.362 399.319L326.659 399.008L325.961 398.687L325.268 398.358L324.58 398.02L323.897 397.674L323.22 397.319L322.548 396.955L321.881 396.584L321.22 396.204L320.564 395.817L319.915 395.421L319.271 395.018L318.633 394.608L318 394.189L317.374 393.764L316.755 393.33L316.141 392.89L315.534 392.443L314.933 391.989L314.338 391.528L313.75 391.06L313.169 390.586L312.594 390.105L312.026 389.618L311.465 389.125L310.91 388.626L310.362 388.121L309.821 387.611L309.287 387.094L308.76 386.572L308.24 386.045L307.726 385.512L307.22 384.974L306.721 384.432L306.229 383.884L305.744 383.331L305.266 382.774L304.795 382.212L304.332 381.646L303.876 381.075L303.427 380.5L302.985 379.92L302.551 379.337L302.124 378.749L301.704 378.158L301.292 377.563L300.888 376.964L300.491 376.361L300.101 375.755L299.719 375.145L299.345 374.532L298.978 373.916L298.619 373.296L298.268 372.673L297.925 372.048L297.59 371.419L297.262 370.787L296.942 370.153L296.631 369.515L296.327 368.875L296.032 368.233L295.744 367.588L295.465 366.941L295.194 366.291L294.931 365.639L294.677 364.986L294.431 364.33L294.193 363.672L293.964 363.012L293.743 362.351L293.53 361.688L293.326 361.024L293.131 360.358L292.944 359.691L292.765 359.023L292.595 358.354L292.434 357.684L292.281 357.013L292.137 356.341L292.001 355.669L291.874 354.996L291.756 354.323L291.646 353.649L291.545 352.975L291.453 352.302L291.369 351.628L291.294 350.955L291.227 350.281L291.169 349.609L291.12 348.937L291.079 348.265L291.046 347.594L291.022 346.924L291.007 346.255L291 345.587L291.002 344.921L291.012 344.256L291.03 343.592L291.057 342.93L291.092 342.269L291.135 341.61L291.187 340.953L291.246 340.298L291.314 339.646L291.39 338.995L291.474 338.347L291.567 337.701L291.667 337.058L291.775 336.417L291.891 335.78L292.015 335.145L292.147 334.513L292.287 333.884L292.434 333.258L292.589 332.636L292.752 332.017L292.922 331.402L293.1 330.79L293.286 330.182L293.479 329.577L293.68 328.977L293.888 328.38L294.103 327.788L294.326 327.2L294.556 326.616L294.794 326.037L295.039 325.462L295.291 324.892L295.55 324.327L295.816 323.767L296.09 323.211L296.37 322.661L296.658 322.116L296.952 321.576L297.253 321.042L297.561 320.513L297.876 319.99L298.198 319.473L298.526 318.962L298.861 318.456L299.202 317.957L299.549 317.464L299.903 316.977L300.264 316.496L300.63 316.022L301.002 315.555L301.381 315.094L301.765 314.64L302.155 314.193L302.55 313.753L302.951 313.32L303.358 312.895L303.77 312.476L304.186 312.065L304.608 311.661L305.035 311.264L305.466 310.875L305.902 310.493L306.342 310.12L306.787 309.753L307.235 309.394L307.687 309.043L308.143 308.7L308.603 308.364L309.065 308.036L309.531 307.715L309.999 307.402L310.471 307.097L310.944 306.799L311.42 306.509L311.898 306.226L312.378 305.951L312.86 305.683L313.343 305.422L313.827 305.168L314.312 304.921L314.799 304.682L315.286 304.449L315.773 304.223L316.261 304.004L316.75 303.791L317.238 303.585L317.726 303.385L318.214 303.191L318.701 303.003L319.188 302.821L319.674 302.645L320.159 302.475L320.643 302.31L321.126 302.15L321.608 301.995L322.089 301.846L322.568 301.701L323.045 301.56L323.521 301.424L323.995 301.293L324.467 301.165L324.937 301.042L325.405 300.922L325.872 300.805L326.336 300.692L326.798 300.583L327.258 300.476L327.716 300.372L328.171 300.271L328.625 300.172L329.076 300.076L329.525 299.982L329.972 299.891L330.417 299.801L330.86 299.713L331.301 299.627L331.74 299.543L332.177 299.461L332.612 299.38L333.045 299.3L333.477 299.222L333.907 299.145L334.335 299.069L334.762 298.994L335.187 298.921L335.611 298.849L336.033 298.777L336.455 298.707L336.875 298.637L337.294 298.569L337.713 298.501L338.13 298.435L338.547 298.369L338.963 298.304L339.378 298.241L339.793 298.178L340.208 298.116L340.622 298.056L341.036 297.996L341.45 297.938L341.863 297.88L342.277 297.824L342.691 297.77L343.104 297.716L343.518 297.664L343.933 297.613L344.347 297.564L344.762 297.517L345.177 297.471L345.593 297.426L346.01 297.384L346.427 297.343L346.844 297.305L347.263 297.268L347.682 297.234L348.102 297.201L348.522 297.171L348.943 297.143L349.366 297.117L349.789 297.094L350.213 297.073L350.638 297.055L351.064 297.039L351.491 297.026L351.918 297.015L352.347 297.007L352.777 297.002L353.208 297L353.64 297.001L354.073 297.004L354.507 297.011L354.942 297.02L355.378 297.033L355.815 297.049L356.253 297.069L356.693 297.091L357.133 297.117L357.574 297.147L358.017 297.18L358.46 297.216L358.904 297.256L359.35 297.3L359.796 297.348L360.243 297.4L360.691 297.456L361.14 297.515L361.59 297.579L362.04 297.647L362.492 297.719L362.944 297.795L363.397 297.875L363.851 297.96L364.305 298.049L364.76 298.143L365.215 298.241L365.671 298.343L366.128 298.451L366.585 298.562L367.042 298.679L367.5 298.8L367.959 298.926L368.417 299.056L368.876 299.192L369.335 299.332L369.794 299.478L370.253 299.628L370.713 299.784L371.172 299.944L371.631 300.11L372.09 300.281L372.549 300.458L373.007 300.639L373.465 300.826L373.923 301.019L374.38 301.217L374.836 301.42L375.292 301.629L375.747 301.843L376.202 302.063L376.655 302.288L377.108 302.519L377.559 302.756L378.01 302.998L378.46 303.246L378.908 303.499L379.355 303.758L379.801 304.023L380.246 304.293L380.689 304.569L381.131 304.851L381.571 305.138L382.01 305.431L382.448 305.729L382.884 306.033L383.318 306.343L383.75 306.658L384.181 306.979L384.61 307.305L385.037 307.637L385.463 307.975L385.887 308.318L386.308 308.667L386.728 309.021L387.146 309.381L387.561 309.746L387.975 310.117L388.386 310.494L388.796 310.876L389.203 311.264L389.608 311.657L390.01 312.056L390.41 312.46L390.807 312.871L391.202 313.286L391.594 313.708L391.984 314.135L392.37 314.567L392.754 315.006L393.134 315.45L393.512 315.9L393.886 316.355L394.256 316.817L394.624 317.284L394.987 317.756L395.347 318.235L395.704 318.719L396.056 319.209L396.404 319.704L396.748 320.206L397.088 320.713L397.424 321.225L397.755 321.744L398.082 322.268L398.404 322.797L398.721 323.333L399.033 323.873L399.34 324.42L399.642 324.971L399.939 325.529L400.23 326.091L400.516 326.66L400.796 327.233L401.07 327.812L401.339 328.396L401.601 328.985L401.857 329.58L402.107 330.179L402.35 330.784L402.587 331.393L402.817 332.008L403.04 332.627L403.256 333.251L403.465 333.88L403.667 334.513" fill="url(#paint0_linear_99_94)"/>
<path fill-rule="evenodd" clip-rule="evenodd" d="M403.667 334.513V334.513L403.862 335.151L404.049 335.793L404.228 336.439L404.4 337.09L404.563 337.745L404.719 338.403L404.866 339.066L405.005 339.733L405.135 340.403L405.257 341.076L405.37 341.753L405.474 342.434L405.569 343.117L405.655 343.804L405.732 344.493L405.799 345.185L405.857 345.879L405.905 346.576L405.944 347.275L405.972 347.976L405.991 348.68L406 349.384L405.999 350.091L405.988 350.799L405.966 351.508L405.935 352.218L405.893 352.929L405.841 353.641L405.778 354.353L405.705 355.066L405.622 355.779L405.528 356.492L405.424 357.205L405.31 357.917L405.185 358.629L405.049 359.341L404.903 360.052L404.747 360.762L404.58 361.47L404.403 362.178L404.215 362.884L404.017 363.588L403.809 364.291L403.59 364.991L403.362 365.69L403.123 366.386L402.873 367.08L402.614 367.771L402.345 368.46L402.065 369.146L401.776 369.829L401.476 370.508L401.167 371.185L400.848 371.857L400.519 372.526L400.18 373.192L399.832 373.853L399.474 374.511L399.106 375.164L398.729 375.812L398.343 376.456L397.947 377.096L397.541 377.73L397.127 378.36L396.703 378.985L396.271 379.604L395.829 380.218L395.379 380.827L394.92 381.43L394.452 382.027L393.976 382.619L393.492 383.205L392.999 383.784L392.498 384.358L391.988 384.925L391.471 385.486L390.946 386.041L390.413 386.589L389.872 387.131L389.324 387.666L388.769 388.194L388.206 388.715L387.635 389.229L387.058 389.736L386.473 390.236L385.882 390.729L385.284 391.214L384.679 391.692L384.067 392.162L383.449 392.625L382.825 393.08L382.194 393.527L381.557 393.966L380.914 394.397L380.265 394.82L379.61 395.235L378.95 395.642L378.284 396.04L377.612 396.43L376.935 396.811L376.252 397.183L375.564 397.547L374.872 397.902L374.174 398.247L373.471 398.584L372.764 398.911L372.052 399.229L371.335 399.538L370.614 399.837L369.889 400.127L369.16 400.406L368.427 400.676L367.69 400.936L366.949 401.187L366.205 401.427L365.458 401.656L364.707 401.876L363.953 402.085L363.196 402.284L362.436 402.472L361.673 402.649L360.908 402.816L360.141 402.972L359.371 403.118L358.6 403.252L357.826 403.376L357.051 403.488L356.274 403.589L355.496 403.68L354.717 403.759L353.937 403.827L353.156 403.884L352.375 403.93L351.593 403.964L350.81 403.987L350.028 403.999L349.245 404L348.463 403.99L347.682 403.968L346.901 403.935L346.12 403.891L345.341 403.836L344.563 403.769L343.786 403.692L343.011 403.603L342.237 403.504L341.465 403.394L340.696 403.272L339.928 403.14L339.163 402.997L338.4 402.844L337.64 402.68L336.882 402.505L336.128 402.32L335.377 402.124L334.629 401.918L333.885 401.703L333.144 401.477L332.407 401.241L331.673 400.995L330.944 400.739L330.219 400.474L329.498 400.199L328.781 399.915L328.069 399.622L327.362 399.319L326.659 399.008L325.961 398.687L325.268 398.358L324.58 398.02L323.897 397.674L323.22 397.319L322.548 396.955L321.881 396.584L321.22 396.204L320.564 395.817L319.915 395.421L319.271 395.018L318.633 394.608L318 394.189L317.374 393.764L316.755 393.33L316.141 392.89L315.534 392.443L314.933 391.989L314.338 391.528L313.75 391.06L313.169 390.586L312.594 390.105L312.026 389.618L311.465 389.125L310.91 388.626L310.362 388.121L309.821 387.611L309.287 387.094L308.76 386.572L308.24 386.045L307.726 385.512L307.22 384.974L306.721 384.432L306.229 383.884L305.744 383.331L305.266 382.774L304.795 382.212L304.332 381.646L303.876 381.075L303.427 380.5L302.985 379.92L302.551 379.337L302.124 378.749L301.704 378.158L301.292 377.563L300.888 376.964L300.491 376.361L300.101 375.755L299.719 375.145L299.345 374.532L298.978 373.916L298.619 373.296L298.268 372.673L297.925 372.048L297.59 371.419L297.262 370.787L296.942 370.153L296.631 369.515L296.327 368.875L296.032 368.233L295.744 367.588L295.465 366.941L295.194 366.291L294.931 365.639L294.677 364.986L294.431 364.33L294.193 363.672L293.964 363.012L293.743 362.351L293.53 361.688L293.326 361.024L293.131 360.358L292.944 359.691L292.765 359.023L292.595 358.354L292.434 357.684L292.281 357.013L292.137 356.341L292.001 355.669L291.874 354.996L291.756 354.323L291.646 353.649L291.545 352.975L291.453 352.302L291.369 351.628L291.294 350.955L291.227 350.281L291.169 349.609L291.12 348.937L291.079 348.265L291.046 347.594L291.022 346.924L291.007 346.255L291 345.587L291.002 344.921L291.012 344.256L291.03 343.592L291.057 342.93L291.092 342.269L291.135 341.61L291.187 340.953L291.246 340.298L291.314 339.646L291.39 338.995L291.474 338.347L291.567 337.701L291.667 337.058L291.775 336.417L291.891 335.78L292.015 335.145L292.147 334.513L292.287 333.884L292.434 333.258L292.589 332.636L292.752 332.017L292.922 331.402L293.1 330.79L293.286 330.182L293.479 329.577L293.68 328.977L293.888 328.38L294.103 327.788L294.326 327.2L294.556 326.616L294.794 326.037L295.039 325.462L295.291 324.892L295.55 324.327L295.816 323.767L296.09 323.211L296.37 322.661L296.658 322.116L296.952 321.576L297.253 321.042L297.561 320.513L297.876 319.99L298.198 319.473L298.526 318.962L298.861 318.456L299.202 317.957L299.549 317.464L299.903 316.977L300.264 316.496L300.63 316.022L301.002 315.555L301.381 315.094L301.765 314.64L302.155 314.193L302.55 313.753L302.951 313.32L303.358 312.895L303.77 312.476L304.186 312.065L304.608 311.661L305.035 311.264L305.466 310.875L305.902 310.493L306.342 310.12L306.787 309.753L307.235 309.394L307.687 309.043L308.143 308.7L308.603 308.364L309.065 308.036L309.531 307.715L309.999 307.402L310.471 307.097L310.944 306.799L311.42 306.509L311.898 306.226L312.378 305.951L312.86 305.683L313.343 305.422L313.827 305.168L314.312 304.921L314.799 304.682L315.286 304.449L315.773 304.223L316.261 304.004L316.75 303.791L317.238 303.585L317.726 303.385L318.214 303.191L318.701 303.003L319.188 302.821L319.674 302.645L320.159 302.475L320.643 302.31L321.126 302.15L321.608 301.995L322.089 301.846L322.568 301.701L323.045 301.56L323.521 301.424L323.995 301.293L324.467 301.165L324.937 301.042L325.405 300.922L325.872 300.805L326.336 300.692L326.798 300.583L327.258 300.476L327.716 300.372L328.171 300.271L328.625 300.172L329.076 300.076L329.525 299.982L329.972 299.891L330.417 299.801L330.86 299.713L331.301 299.627L331.74 299.543L332.177 299.461L332.612 299.38L333.045 299.3L333.477 299.222L333.907 299.145L334.335 299.069L334.762 298.994L335.187 298.921L335.611 298.849L336.033 298.777L336.455 298.707L336.875 298.637L337.294 298.569L337.713 298.501L338.13 298.435L338.547 298.369L338.963 298.304L339.378 298.241L339.793 298.178L340.208 298.116L340.622 298.056L341.036 297.996L341.45 297.938L341.863 297.88L342.277 297.824L342.691 297.77L343.104 297.716L343.518 297.664L343.933 297.613L344.347 297.564L344.762 297.517L345.177 297.471L345.593 297.426L346.01 297.384L346.427 297.343L346.844 297.305L347.263 297.268L347.682 297.234L348.102 297.201L348.522 297.171L348.943 297.143L349.366 297.117L349.789 297.094L350.213 297.073L350.638 297.055L351.064 297.039L351.491 297.026L351.918 297.015L352.347 297.007L352.777 297.002L353.208 297L353.64 297.001L354.073 297.004L354.507 297.011L354.942 297.02L355.378 297.033L355.815 297.049L356.253 297.069L356.693 297.091L357.133 297.117L357.574 297.147L358.017 297.18L358.46 297.216L358.904 297.256L359.35 297.3L359.796 297.348L360.243 297.4L360.691 297.456L361.14 297.515L361.59 297.579L362.04 297.647L362.492 297.719L362.944 297.795L363.397 297.875L363.851 297.96L364.305 298.049L364.76 298.143L365.215 298.241L365.671 298.343L366.128 298.451L366.585 298.562L367.042 298.679L367.5 298.8L367.959 298.926L368.417 299.056L368.876 299.192L369.335 299.332L369.794 299.478L370.253 299.628L370.713 299.784L371.172 299.944L371.631 300.11L372.09 300.281L372.549 300.458L373.007 300.639L373.465 300.826L373.923 301.019L374.38 301.217L374.836 301.42L375.292 301.629L375.747 301.843L376.202 302.063L376.655 302.288L377.108 302.519L377.559 302.756L378.01 302.998L378.46 303.246L378.908 303.499L379.355 303.758L379.801 304.023L380.246 304.293L380.689 304.569L381.131 304.851L381.571 305.138L382.01 305.431L382.448 305.729L382.884 306.033L383.318 306.343L383.75 306.658L384.181 306.979L384.61 307.305L385.037 307.637L385.463 307.975L385.887 308.318L386.308 308.667L386.728 309.021L387.146 309.381L387.561 309.746L387.975 310.117L388.386 310.494L388.796 310.876L389.203 311.264L389.608 311.657L390.01 312.056L390.41 312.46L390.807 312.871L391.202 313.286L391.594 313.708L391.984 314.135L392.37 314.567L392.754 315.006L393.134 315.45L393.512 315.9L393.886 316.355L394.256 316.817L394.624 317.284L394.987 317.756L395.347 318.235L395.704 318.719L396.056 319.209L396.404 319.704L396.748 320.206L397.088 320.713L397.424 321.225L397.755 321.744L398.082 322.268L398.404 322.797L398.721 323.333L399.033 323.873L399.34 324.42L399.642 324.971L399.939 325.529L400.23 326.091L400.516 326.66L400.796 327.233L401.07 327.812L401.339 328.396L401.601 328.985L401.857 329.58L402.107 330.179L402.35 330.784L402.587 331.393L402.817 332.008L403.04 332.627L403.256 333.251L403.465 333.88L403.667 334.513" fill="url(#paint1_linear_99_94)"/>
</g>
<path d="M312.052 327.011L350.026 305L388 327.011L350.026 349.021L312.052 327.011Z" fill="url(#paint2_linear_99_94)"/>
<path d="M387.917 326.962L387.915 370.986L349.943 393L349.944 348.976L387.917 326.962Z" fill="url(#paint3_linear_99_94)"/>
<path d="M349.974 393L349.972 348.976L312 326.962L312.002 370.986L349.974 393Z" fill="url(#paint4_linear_99_94)"/>
<defs>
<filter id="filter0_f_99_94" x="211" y="217" width="275" height="267" filterUnits="userSpaceOnUse" color-interpolation-filters="sRGB">
<feFlood flood-opacity="0" result="BackgroundImageFix"/>
<feBlend mode="normal" in="SourceGraphic" in2="BackgroundImageFix" result="shape"/>
<feGaussianBlur stdDeviation="40" result="effect1_foregroundBlur_99_94"/>
</filter>
<linearGradient id="paint0_linear_99_94" x1="309" y1="319.5" x2="352.577" y2="399.095" gradientUnits="userSpaceOnUse">
<stop stop-color="#2B4778"/>
<stop offset="1" stop-color="#2F6934"/>
</linearGradient>
<linearGradient id="paint1_linear_99_94" x1="309" y1="319.5" x2="352.577" y2="399.095" gradientUnits="userSpaceOnUse">
<stop stop-color="#2B4778"/>
<stop offset="1" stop-color="#2F6934"/>
</linearGradient>
<linearGradient id="paint2_linear_99_94" x1="351.558" y1="390.95" x2="351.558" y2="275.353" gradientUnits="userSpaceOnUse">
<stop stop-color="#4DFFDF"/>
<stop offset="1" stop-color="#262E58"/>
</linearGradient>
<linearGradient id="paint3_linear_99_94" x1="351.323" y1="415.18" x2="342.875" y2="256.289" gradientUnits="userSpaceOnUse">
<stop stop-color="#2E9986"/>
<stop offset="1" stop-color="#4DFFDF"/>
</linearGradient>
<linearGradient id="paint4_linear_99_94" x1="368.126" y1="381.621" x2="306.973" y2="381.341" gradientUnits="userSpaceOnUse">
<stop stop-color="#2E9986"/>
<stop offset="0.0001" stop-color="#2E9986"/>
<stop offset="1" stop-color="#262E58"/>
</linearGradient>
</defs>
</svg>
