<svg width="700" height="700" viewBox="0 0 700 700" fill="none" xmlns="http://www.w3.org/2000/svg">
<g filter="url(#filter0_f_99_163)">
<path fill-rule="evenodd" clip-rule="evenodd" d="M403.667 506.513V506.513L403.862 507.151L404.049 507.793L404.228 508.439L404.4 509.09L404.563 509.745L404.719 510.403L404.866 511.066L405.005 511.733L405.135 512.403L405.257 513.076L405.37 513.753L405.474 514.434L405.569 515.117L405.655 515.804L405.732 516.493L405.799 517.185L405.857 517.879L405.905 518.576L405.944 519.275L405.972 519.976L405.991 520.68L406 521.384L405.999 522.091L405.988 522.799L405.966 523.508L405.935 524.218L405.893 524.929L405.841 525.641L405.778 526.353L405.705 527.066L405.622 527.779L405.528 528.492L405.424 529.205L405.31 529.917L405.185 530.629L405.049 531.341L404.903 532.052L404.747 532.762L404.58 533.47L404.403 534.178L404.215 534.884L404.017 535.588L403.809 536.291L403.59 536.991L403.362 537.69L403.123 538.386L402.873 539.08L402.614 539.771L402.345 540.46L402.065 541.146L401.776 541.829L401.476 542.508L401.167 543.185L400.848 543.857L400.519 544.526L400.18 545.192L399.832 545.853L399.474 546.511L399.106 547.164L398.729 547.812L398.343 548.456L397.947 549.096L397.541 549.73L397.127 550.36L396.703 550.985L396.271 551.604L395.829 552.218L395.379 552.827L394.92 553.43L394.452 554.027L393.976 554.619L393.492 555.205L392.999 555.784L392.498 556.358L391.988 556.925L391.471 557.486L390.946 558.041L390.413 558.589L389.872 559.131L389.324 559.666L388.769 560.194L388.206 560.715L387.635 561.229L387.058 561.736L386.473 562.236L385.882 562.729L385.284 563.214L384.679 563.692L384.067 564.162L383.449 564.625L382.825 565.08L382.194 565.527L381.557 565.966L380.914 566.397L380.265 566.82L379.61 567.235L378.95 567.642L378.284 568.04L377.612 568.43L376.935 568.811L376.252 569.183L375.564 569.547L374.872 569.902L374.174 570.247L373.471 570.584L372.764 570.911L372.052 571.229L371.335 571.538L370.614 571.837L369.889 572.127L369.16 572.406L368.427 572.676L367.69 572.936L366.949 573.187L366.205 573.427L365.458 573.656L364.707 573.876L363.953 574.085L363.196 574.284L362.436 574.472L361.673 574.649L360.908 574.816L360.141 574.972L359.371 575.118L358.6 575.252L357.826 575.376L357.051 575.488L356.274 575.589L355.496 575.68L354.717 575.759L353.937 575.827L353.156 575.884L352.375 575.93L351.593 575.964L350.81 575.987L350.028 575.999L349.245 576L348.463 575.99L347.682 575.968L346.901 575.935L346.12 575.891L345.341 575.836L344.563 575.769L343.786 575.692L343.011 575.603L342.237 575.504L341.465 575.394L340.696 575.272L339.928 575.14L339.163 574.997L338.4 574.844L337.64 574.68L336.882 574.505L336.128 574.32L335.377 574.124L334.629 573.918L333.885 573.703L333.144 573.477L332.407 573.241L331.673 572.995L330.944 572.739L330.219 572.474L329.498 572.199L328.781 571.915L328.069 571.622L327.362 571.319L326.659 571.008L325.961 570.687L325.268 570.358L324.58 570.02L323.897 569.674L323.22 569.319L322.548 568.955L321.881 568.584L321.22 568.204L320.564 567.817L319.915 567.421L319.271 567.018L318.633 566.608L318 566.189L317.374 565.764L316.755 565.33L316.141 564.89L315.534 564.443L314.933 563.989L314.338 563.528L313.75 563.06L313.169 562.586L312.594 562.105L312.026 561.618L311.465 561.125L310.91 560.626L310.362 560.121L309.821 559.611L309.287 559.094L308.76 558.572L308.24 558.045L307.726 557.512L307.22 556.974L306.721 556.432L306.229 555.884L305.744 555.331L305.266 554.774L304.795 554.212L304.332 553.646L303.876 553.075L303.427 552.5L302.985 551.92L302.551 551.337L302.124 550.749L301.704 550.158L301.292 549.563L300.888 548.964L300.491 548.361L300.101 547.755L299.719 547.145L299.345 546.532L298.978 545.916L298.619 545.296L298.268 544.673L297.925 544.048L297.59 543.419L297.262 542.787L296.942 542.153L296.631 541.515L296.327 540.875L296.032 540.233L295.744 539.588L295.465 538.941L295.194 538.291L294.931 537.639L294.677 536.986L294.431 536.33L294.193 535.672L293.964 535.012L293.743 534.351L293.53 533.688L293.326 533.024L293.131 532.358L292.944 531.691L292.765 531.023L292.595 530.354L292.434 529.684L292.281 529.013L292.137 528.341L292.001 527.669L291.874 526.996L291.756 526.323L291.646 525.649L291.545 524.975L291.453 524.302L291.369 523.628L291.294 522.955L291.227 522.281L291.169 521.609L291.12 520.937L291.079 520.265L291.046 519.594L291.022 518.924L291.007 518.255L291 517.587L291.002 516.921L291.012 516.256L291.03 515.592L291.057 514.93L291.092 514.269L291.135 513.61L291.187 512.953L291.246 512.298L291.314 511.646L291.39 510.995L291.474 510.347L291.567 509.701L291.667 509.058L291.775 508.417L291.891 507.78L292.015 507.145L292.147 506.513L292.287 505.884L292.434 505.258L292.589 504.636L292.752 504.017L292.922 503.402L293.1 502.79L293.286 502.182L293.479 501.577L293.68 500.977L293.888 500.38L294.103 499.788L294.326 499.2L294.556 498.616L294.794 498.037L295.039 497.462L295.291 496.892L295.55 496.327L295.816 495.767L296.09 495.211L296.37 494.661L296.658 494.116L296.952 493.576L297.253 493.042L297.561 492.513L297.876 491.99L298.198 491.473L298.526 490.962L298.861 490.456L299.202 489.957L299.549 489.464L299.903 488.977L300.264 488.496L300.63 488.022L301.002 487.555L301.381 487.094L301.765 486.64L302.155 486.193L302.55 485.753L302.951 485.32L303.358 484.895L303.77 484.476L304.186 484.065L304.608 483.661L305.035 483.264L305.466 482.875L305.902 482.493L306.342 482.12L306.787 481.753L307.235 481.394L307.687 481.043L308.143 480.7L308.603 480.364L309.065 480.036L309.531 479.715L309.999 479.402L310.471 479.097L310.944 478.799L311.42 478.509L311.898 478.226L312.378 477.951L312.86 477.683L313.343 477.422L313.827 477.168L314.312 476.921L314.799 476.682L315.286 476.449L315.773 476.223L316.261 476.004L316.75 475.791L317.238 475.585L317.726 475.385L318.214 475.191L318.701 475.003L319.188 474.821L319.674 474.645L320.159 474.475L320.643 474.31L321.126 474.15L321.608 473.995L322.089 473.846L322.568 473.701L323.045 473.56L323.521 473.424L323.995 473.293L324.467 473.165L324.937 473.042L325.405 472.922L325.872 472.805L326.336 472.692L326.798 472.583L327.258 472.476L327.716 472.372L328.171 472.271L328.625 472.172L329.076 472.076L329.525 471.982L329.972 471.891L330.417 471.801L330.86 471.713L331.301 471.627L331.74 471.543L332.177 471.461L332.612 471.38L333.045 471.3L333.477 471.222L333.907 471.145L334.335 471.069L334.762 470.994L335.187 470.921L335.611 470.849L336.033 470.777L336.455 470.707L336.875 470.637L337.294 470.569L337.713 470.501L338.13 470.435L338.547 470.369L338.963 470.304L339.378 470.241L339.793 470.178L340.208 470.116L340.622 470.056L341.036 469.996L341.45 469.938L341.863 469.88L342.277 469.824L342.691 469.77L343.104 469.716L343.518 469.664L343.933 469.613L344.347 469.564L344.762 469.517L345.177 469.471L345.593 469.426L346.01 469.384L346.427 469.343L346.844 469.305L347.263 469.268L347.682 469.234L348.102 469.201L348.522 469.171L348.943 469.143L349.366 469.117L349.789 469.094L350.213 469.073L350.638 469.055L351.064 469.039L351.491 469.026L351.918 469.015L352.347 469.007L352.777 469.002L353.208 469L353.64 469.001L354.073 469.004L354.507 469.011L354.942 469.02L355.378 469.033L355.815 469.049L356.253 469.069L356.693 469.091L357.133 469.117L357.574 469.147L358.017 469.18L358.46 469.216L358.904 469.256L359.35 469.3L359.796 469.348L360.243 469.4L360.691 469.456L361.14 469.515L361.59 469.579L362.04 469.647L362.492 469.719L362.944 469.795L363.397 469.875L363.851 469.96L364.305 470.049L364.76 470.143L365.215 470.241L365.671 470.343L366.128 470.451L366.585 470.562L367.042 470.679L367.5 470.8L367.959 470.926L368.417 471.056L368.876 471.192L369.335 471.332L369.794 471.478L370.253 471.628L370.713 471.784L371.172 471.944L371.631 472.11L372.09 472.281L372.549 472.458L373.007 472.639L373.465 472.826L373.923 473.019L374.38 473.217L374.836 473.42L375.292 473.629L375.747 473.843L376.202 474.063L376.655 474.288L377.108 474.519L377.559 474.756L378.01 474.998L378.46 475.246L378.908 475.499L379.355 475.758L379.801 476.023L380.246 476.293L380.689 476.569L381.131 476.851L381.571 477.138L382.01 477.431L382.448 477.729L382.884 478.033L383.318 478.343L383.75 478.658L384.181 478.979L384.61 479.305L385.037 479.637L385.463 479.975L385.887 480.318L386.308 480.667L386.728 481.021L387.146 481.381L387.561 481.746L387.975 482.117L388.386 482.494L388.796 482.876L389.203 483.264L389.608 483.657L390.01 484.056L390.41 484.46L390.807 484.871L391.202 485.286L391.594 485.708L391.984 486.135L392.37 486.567L392.754 487.006L393.134 487.45L393.512 487.9L393.886 488.355L394.256 488.817L394.624 489.284L394.987 489.756L395.347 490.235L395.704 490.719L396.056 491.209L396.404 491.704L396.748 492.206L397.088 492.713L397.424 493.225L397.755 493.744L398.082 494.268L398.404 494.797L398.721 495.333L399.033 495.873L399.34 496.42L399.642 496.971L399.939 497.529L400.23 498.091L400.516 498.66L400.796 499.233L401.07 499.812L401.339 500.396L401.601 500.985L401.857 501.58L402.107 502.179L402.35 502.784L402.587 503.393L402.817 504.008L403.04 504.627L403.256 505.251L403.465 505.88L403.667 506.513" fill="url(#paint0_linear_99_163)"/>
<path fill-rule="evenodd" clip-rule="evenodd" d="M403.667 506.513V506.513L403.862 507.151L404.049 507.793L404.228 508.439L404.4 509.09L404.563 509.745L404.719 510.403L404.866 511.066L405.005 511.733L405.135 512.403L405.257 513.076L405.37 513.753L405.474 514.434L405.569 515.117L405.655 515.804L405.732 516.493L405.799 517.185L405.857 517.879L405.905 518.576L405.944 519.275L405.972 519.976L405.991 520.68L406 521.384L405.999 522.091L405.988 522.799L405.966 523.508L405.935 524.218L405.893 524.929L405.841 525.641L405.778 526.353L405.705 527.066L405.622 527.779L405.528 528.492L405.424 529.205L405.31 529.917L405.185 530.629L405.049 531.341L404.903 532.052L404.747 532.762L404.58 533.47L404.403 534.178L404.215 534.884L404.017 535.588L403.809 536.291L403.59 536.991L403.362 537.69L403.123 538.386L402.873 539.08L402.614 539.771L402.345 540.46L402.065 541.146L401.776 541.829L401.476 542.508L401.167 543.185L400.848 543.857L400.519 544.526L400.18 545.192L399.832 545.853L399.474 546.511L399.106 547.164L398.729 547.812L398.343 548.456L397.947 549.096L397.541 549.73L397.127 550.36L396.703 550.985L396.271 551.604L395.829 552.218L395.379 552.827L394.92 553.43L394.452 554.027L393.976 554.619L393.492 555.205L392.999 555.784L392.498 556.358L391.988 556.925L391.471 557.486L390.946 558.041L390.413 558.589L389.872 559.131L389.324 559.666L388.769 560.194L388.206 560.715L387.635 561.229L387.058 561.736L386.473 562.236L385.882 562.729L385.284 563.214L384.679 563.692L384.067 564.162L383.449 564.625L382.825 565.08L382.194 565.527L381.557 565.966L380.914 566.397L380.265 566.82L379.61 567.235L378.95 567.642L378.284 568.04L377.612 568.43L376.935 568.811L376.252 569.183L375.564 569.547L374.872 569.902L374.174 570.247L373.471 570.584L372.764 570.911L372.052 571.229L371.335 571.538L370.614 571.837L369.889 572.127L369.16 572.406L368.427 572.676L367.69 572.936L366.949 573.187L366.205 573.427L365.458 573.656L364.707 573.876L363.953 574.085L363.196 574.284L362.436 574.472L361.673 574.649L360.908 574.816L360.141 574.972L359.371 575.118L358.6 575.252L357.826 575.376L357.051 575.488L356.274 575.589L355.496 575.68L354.717 575.759L353.937 575.827L353.156 575.884L352.375 575.93L351.593 575.964L350.81 575.987L350.028 575.999L349.245 576L348.463 575.99L347.682 575.968L346.901 575.935L346.12 575.891L345.341 575.836L344.563 575.769L343.786 575.692L343.011 575.603L342.237 575.504L341.465 575.394L340.696 575.272L339.928 575.14L339.163 574.997L338.4 574.844L337.64 574.68L336.882 574.505L336.128 574.32L335.377 574.124L334.629 573.918L333.885 573.703L333.144 573.477L332.407 573.241L331.673 572.995L330.944 572.739L330.219 572.474L329.498 572.199L328.781 571.915L328.069 571.622L327.362 571.319L326.659 571.008L325.961 570.687L325.268 570.358L324.58 570.02L323.897 569.674L323.22 569.319L322.548 568.955L321.881 568.584L321.22 568.204L320.564 567.817L319.915 567.421L319.271 567.018L318.633 566.608L318 566.189L317.374 565.764L316.755 565.33L316.141 564.89L315.534 564.443L314.933 563.989L314.338 563.528L313.75 563.06L313.169 562.586L312.594 562.105L312.026 561.618L311.465 561.125L310.91 560.626L310.362 560.121L309.821 559.611L309.287 559.094L308.76 558.572L308.24 558.045L307.726 557.512L307.22 556.974L306.721 556.432L306.229 555.884L305.744 555.331L305.266 554.774L304.795 554.212L304.332 553.646L303.876 553.075L303.427 552.5L302.985 551.92L302.551 551.337L302.124 550.749L301.704 550.158L301.292 549.563L300.888 548.964L300.491 548.361L300.101 547.755L299.719 547.145L299.345 546.532L298.978 545.916L298.619 545.296L298.268 544.673L297.925 544.048L297.59 543.419L297.262 542.787L296.942 542.153L296.631 541.515L296.327 540.875L296.032 540.233L295.744 539.588L295.465 538.941L295.194 538.291L294.931 537.639L294.677 536.986L294.431 536.33L294.193 535.672L293.964 535.012L293.743 534.351L293.53 533.688L293.326 533.024L293.131 532.358L292.944 531.691L292.765 531.023L292.595 530.354L292.434 529.684L292.281 529.013L292.137 528.341L292.001 527.669L291.874 526.996L291.756 526.323L291.646 525.649L291.545 524.975L291.453 524.302L291.369 523.628L291.294 522.955L291.227 522.281L291.169 521.609L291.12 520.937L291.079 520.265L291.046 519.594L291.022 518.924L291.007 518.255L291 517.587L291.002 516.921L291.012 516.256L291.03 515.592L291.057 514.93L291.092 514.269L291.135 513.61L291.187 512.953L291.246 512.298L291.314 511.646L291.39 510.995L291.474 510.347L291.567 509.701L291.667 509.058L291.775 508.417L291.891 507.78L292.015 507.145L292.147 506.513L292.287 505.884L292.434 505.258L292.589 504.636L292.752 504.017L292.922 503.402L293.1 502.79L293.286 502.182L293.479 501.577L293.68 500.977L293.888 500.38L294.103 499.788L294.326 499.2L294.556 498.616L294.794 498.037L295.039 497.462L295.291 496.892L295.55 496.327L295.816 495.767L296.09 495.211L296.37 494.661L296.658 494.116L296.952 493.576L297.253 493.042L297.561 492.513L297.876 491.99L298.198 491.473L298.526 490.962L298.861 490.456L299.202 489.957L299.549 489.464L299.903 488.977L300.264 488.496L300.63 488.022L301.002 487.555L301.381 487.094L301.765 486.64L302.155 486.193L302.55 485.753L302.951 485.32L303.358 484.895L303.77 484.476L304.186 484.065L304.608 483.661L305.035 483.264L305.466 482.875L305.902 482.493L306.342 482.12L306.787 481.753L307.235 481.394L307.687 481.043L308.143 480.7L308.603 480.364L309.065 480.036L309.531 479.715L309.999 479.402L310.471 479.097L310.944 478.799L311.42 478.509L311.898 478.226L312.378 477.951L312.86 477.683L313.343 477.422L313.827 477.168L314.312 476.921L314.799 476.682L315.286 476.449L315.773 476.223L316.261 476.004L316.75 475.791L317.238 475.585L317.726 475.385L318.214 475.191L318.701 475.003L319.188 474.821L319.674 474.645L320.159 474.475L320.643 474.31L321.126 474.15L321.608 473.995L322.089 473.846L322.568 473.701L323.045 473.56L323.521 473.424L323.995 473.293L324.467 473.165L324.937 473.042L325.405 472.922L325.872 472.805L326.336 472.692L326.798 472.583L327.258 472.476L327.716 472.372L328.171 472.271L328.625 472.172L329.076 472.076L329.525 471.982L329.972 471.891L330.417 471.801L330.86 471.713L331.301 471.627L331.74 471.543L332.177 471.461L332.612 471.38L333.045 471.3L333.477 471.222L333.907 471.145L334.335 471.069L334.762 470.994L335.187 470.921L335.611 470.849L336.033 470.777L336.455 470.707L336.875 470.637L337.294 470.569L337.713 470.501L338.13 470.435L338.547 470.369L338.963 470.304L339.378 470.241L339.793 470.178L340.208 470.116L340.622 470.056L341.036 469.996L341.45 469.938L341.863 469.88L342.277 469.824L342.691 469.77L343.104 469.716L343.518 469.664L343.933 469.613L344.347 469.564L344.762 469.517L345.177 469.471L345.593 469.426L346.01 469.384L346.427 469.343L346.844 469.305L347.263 469.268L347.682 469.234L348.102 469.201L348.522 469.171L348.943 469.143L349.366 469.117L349.789 469.094L350.213 469.073L350.638 469.055L351.064 469.039L351.491 469.026L351.918 469.015L352.347 469.007L352.777 469.002L353.208 469L353.64 469.001L354.073 469.004L354.507 469.011L354.942 469.02L355.378 469.033L355.815 469.049L356.253 469.069L356.693 469.091L357.133 469.117L357.574 469.147L358.017 469.18L358.46 469.216L358.904 469.256L359.35 469.3L359.796 469.348L360.243 469.4L360.691 469.456L361.14 469.515L361.59 469.579L362.04 469.647L362.492 469.719L362.944 469.795L363.397 469.875L363.851 469.96L364.305 470.049L364.76 470.143L365.215 470.241L365.671 470.343L366.128 470.451L366.585 470.562L367.042 470.679L367.5 470.8L367.959 470.926L368.417 471.056L368.876 471.192L369.335 471.332L369.794 471.478L370.253 471.628L370.713 471.784L371.172 471.944L371.631 472.11L372.09 472.281L372.549 472.458L373.007 472.639L373.465 472.826L373.923 473.019L374.38 473.217L374.836 473.42L375.292 473.629L375.747 473.843L376.202 474.063L376.655 474.288L377.108 474.519L377.559 474.756L378.01 474.998L378.46 475.246L378.908 475.499L379.355 475.758L379.801 476.023L380.246 476.293L380.689 476.569L381.131 476.851L381.571 477.138L382.01 477.431L382.448 477.729L382.884 478.033L383.318 478.343L383.75 478.658L384.181 478.979L384.61 479.305L385.037 479.637L385.463 479.975L385.887 480.318L386.308 480.667L386.728 481.021L387.146 481.381L387.561 481.746L387.975 482.117L388.386 482.494L388.796 482.876L389.203 483.264L389.608 483.657L390.01 484.056L390.41 484.46L390.807 484.871L391.202 485.286L391.594 485.708L391.984 486.135L392.37 486.567L392.754 487.006L393.134 487.45L393.512 487.9L393.886 488.355L394.256 488.817L394.624 489.284L394.987 489.756L395.347 490.235L395.704 490.719L396.056 491.209L396.404 491.704L396.748 492.206L397.088 492.713L397.424 493.225L397.755 493.744L398.082 494.268L398.404 494.797L398.721 495.333L399.033 495.873L399.34 496.42L399.642 496.971L399.939 497.529L400.23 498.091L400.516 498.66L400.796 499.233L401.07 499.812L401.339 500.396L401.601 500.985L401.857 501.58L402.107 502.179L402.35 502.784L402.587 503.393L402.817 504.008L403.04 504.627L403.256 505.251L403.465 505.88L403.667 506.513" fill="url(#paint1_linear_99_163)"/>
</g>
<path d="M312.052 501.011L350.026 479L388 501.011L350.026 523.021L312.052 501.011Z" fill="url(#paint2_linear_99_163)"/>
<path d="M387.917 500.962L387.915 544.986L349.943 567L349.944 522.976L387.917 500.962Z" fill="url(#paint3_linear_99_163)"/>
<path d="M349.974 567L349.972 522.976L312 500.962L312.002 544.986L349.974 567Z" fill="url(#paint4_linear_99_163)"/>
<defs>
<filter id="filter0_f_99_163" x="211" y="389" width="275" height="267" filterUnits="userSpaceOnUse" color-interpolation-filters="sRGB">
<feFlood flood-opacity="0" result="BackgroundImageFix"/>
<feBlend mode="normal" in="SourceGraphic" in2="BackgroundImageFix" result="shape"/>
<feGaussianBlur stdDeviation="40" result="effect1_foregroundBlur_99_163"/>
</filter>
<linearGradient id="paint0_linear_99_163" x1="309" y1="491.5" x2="352.577" y2="571.095" gradientUnits="userSpaceOnUse">
<stop stop-color="#2B4778"/>
<stop offset="1" stop-color="#2F6934"/>
</linearGradient>
<linearGradient id="paint1_linear_99_163" x1="309" y1="491.5" x2="352.577" y2="571.095" gradientUnits="userSpaceOnUse">
<stop stop-color="#2B4778"/>
<stop offset="1" stop-color="#2F6934"/>
</linearGradient>
<linearGradient id="paint2_linear_99_163" x1="351.558" y1="564.95" x2="351.558" y2="449.353" gradientUnits="userSpaceOnUse">
<stop stop-color="#4DFFDF"/>
<stop offset="1" stop-color="#262E58"/>
</linearGradient>
<linearGradient id="paint3_linear_99_163" x1="351.323" y1="589.18" x2="342.875" y2="430.289" gradientUnits="userSpaceOnUse">
<stop stop-color="#2E9986"/>
<stop offset="1" stop-color="#4DFFDF"/>
</linearGradient>
<linearGradient id="paint4_linear_99_163" x1="368.126" y1="555.621" x2="306.973" y2="555.341" gradientUnits="userSpaceOnUse">
<stop stop-color="#2E9986"/>
<stop offset="0.0001" stop-color="#2E9986"/>
<stop offset="1" stop-color="#262E58"/>
</linearGradient>
</defs>
</svg>
