<svg width="700" height="700" viewBox="0 0 700 700" fill="none" xmlns="http://www.w3.org/2000/svg">
<g filter="url(#filter0_f_99_25)">
<path fill-rule="evenodd" clip-rule="evenodd" d="M403.667 160.513V160.513L403.862 161.151L404.049 161.793L404.228 162.439L404.4 163.09L404.563 163.745L404.719 164.403L404.866 165.066L405.005 165.733L405.135 166.403L405.257 167.076L405.37 167.753L405.474 168.434L405.569 169.117L405.655 169.804L405.732 170.493L405.799 171.185L405.857 171.879L405.905 172.576L405.944 173.275L405.972 173.976L405.991 174.68L406 175.384L405.999 176.091L405.988 176.799L405.966 177.508L405.935 178.218L405.893 178.929L405.841 179.641L405.778 180.353L405.705 181.066L405.622 181.779L405.528 182.492L405.424 183.205L405.31 183.917L405.184 184.629L405.049 185.341L404.903 186.052L404.747 186.762L404.58 187.47L404.403 188.178L404.215 188.884L404.017 189.588L403.809 190.291L403.59 190.991L403.361 191.69L403.122 192.386L402.873 193.08L402.614 193.771L402.345 194.46L402.065 195.146L401.776 195.829L401.476 196.508L401.167 197.185L400.848 197.857L400.519 198.526L400.18 199.192L399.832 199.853L399.474 200.511L399.106 201.164L398.729 201.812L398.342 202.456L397.947 203.096L397.541 203.73L397.127 204.36L396.703 204.985L396.271 205.604L395.829 206.218L395.379 206.827L394.92 207.43L394.452 208.027L393.976 208.619L393.492 209.205L392.999 209.784L392.498 210.358L391.988 210.925L391.471 211.486L390.946 212.041L390.413 212.589L389.872 213.131L389.324 213.666L388.769 214.194L388.206 214.715L387.635 215.229L387.058 215.736L386.473 216.236L385.882 216.729L385.284 217.214L384.679 217.692L384.067 218.162L383.449 218.625L382.825 219.08L382.194 219.527L381.557 219.966L380.914 220.397L380.265 220.82L379.61 221.235L378.95 221.642L378.283 222.04L377.612 222.43L376.935 222.811L376.252 223.183L375.564 223.547L374.871 223.902L374.174 224.247L373.471 224.584L372.764 224.911L372.052 225.229L371.335 225.538L370.614 225.837L369.889 226.127L369.16 226.406L368.427 226.676L367.69 226.936L366.949 227.187L366.205 227.427L365.458 227.656L364.707 227.876L363.953 228.085L363.195 228.284L362.436 228.472L361.673 228.649L360.908 228.816L360.141 228.972L359.371 229.118L358.6 229.252L357.826 229.376L357.051 229.488L356.274 229.589L355.496 229.68L354.717 229.759L353.937 229.827L353.156 229.884L352.375 229.93L351.593 229.964L350.81 229.987L350.028 229.999L349.245 230L348.463 229.99L347.682 229.968L346.901 229.935L346.12 229.891L345.341 229.836L344.563 229.769L343.786 229.692L343.011 229.603L342.237 229.504L341.465 229.394L340.696 229.272L339.928 229.14L339.163 228.997L338.4 228.844L337.64 228.68L336.882 228.505L336.128 228.32L335.377 228.124L334.629 227.918L333.885 227.703L333.144 227.477L332.407 227.241L331.673 226.995L330.944 226.739L330.219 226.474L329.498 226.199L328.781 225.915L328.069 225.622L327.362 225.319L326.659 225.008L325.961 224.687L325.268 224.358L324.58 224.02L323.897 223.674L323.22 223.319L322.548 222.955L321.881 222.584L321.22 222.204L320.564 221.817L319.914 221.421L319.271 221.018L318.632 220.608L318 220.189L317.374 219.764L316.755 219.33L316.141 218.89L315.534 218.443L314.933 217.989L314.338 217.528L313.75 217.06L313.169 216.586L312.594 216.105L312.026 215.618L311.465 215.125L310.91 214.626L310.362 214.121L309.821 213.611L309.287 213.094L308.76 212.572L308.239 212.045L307.726 211.512L307.22 210.974L306.721 210.432L306.229 209.884L305.744 209.331L305.266 208.774L304.795 208.212L304.332 207.646L303.876 207.075L303.427 206.5L302.985 205.92L302.551 205.337L302.124 204.749L301.704 204.158L301.292 203.563L300.888 202.964L300.491 202.361L300.101 201.755L299.719 201.145L299.345 200.532L298.978 199.916L298.619 199.296L298.268 198.673L297.925 198.048L297.589 197.419L297.262 196.787L296.942 196.153L296.631 195.515L296.327 194.875L296.032 194.233L295.744 193.588L295.465 192.941L295.194 192.291L294.931 191.639L294.677 190.986L294.431 190.33L294.193 189.672L293.963 189.012L293.743 188.351L293.53 187.688L293.326 187.024L293.13 186.358L292.943 185.691L292.765 185.023L292.595 184.354L292.434 183.684L292.281 183.013L292.137 182.341L292.001 181.669L291.874 180.996L291.756 180.323L291.646 179.649L291.545 178.975L291.453 178.302L291.369 177.628L291.294 176.955L291.227 176.281L291.169 175.609L291.119 174.937L291.079 174.265L291.046 173.594L291.022 172.924L291.007 172.255L291 171.587L291.002 170.921L291.012 170.256L291.03 169.592L291.057 168.93L291.092 168.269L291.135 167.61L291.186 166.953L291.246 166.298L291.314 165.646L291.39 164.995L291.474 164.347L291.567 163.701L291.667 163.058L291.775 162.417L291.891 161.78L292.015 161.145L292.147 160.513L292.287 159.884L292.434 159.258L292.589 158.636L292.752 158.017L292.922 157.402L293.1 156.79L293.286 156.182L293.479 155.577L293.68 154.977L293.888 154.38L294.103 153.788L294.326 153.2L294.556 152.616L294.794 152.037L295.039 151.462L295.291 150.892L295.55 150.327L295.816 149.767L296.09 149.211L296.37 148.661L296.658 148.116L296.952 147.576L297.253 147.042L297.561 146.513L297.876 145.99L298.198 145.473L298.526 144.962L298.861 144.456L299.202 143.957L299.549 143.464L299.903 142.977L300.264 142.496L300.63 142.022L301.002 141.555L301.381 141.094L301.765 140.64L302.155 140.193L302.55 139.753L302.951 139.32L303.358 138.895L303.77 138.476L304.186 138.065L304.608 137.661L305.035 137.264L305.466 136.875L305.902 136.493L306.342 136.12L306.787 135.753L307.235 135.394L307.687 135.043L308.143 134.7L308.603 134.364L309.065 134.036L309.531 133.715L309.999 133.402L310.471 133.097L310.944 132.799L311.42 132.509L311.898 132.226L312.378 131.951L312.86 131.683L313.343 131.422L313.827 131.168L314.312 130.921L314.799 130.682L315.286 130.449L315.773 130.223L316.261 130.004L316.749 129.791L317.238 129.585L317.726 129.385L318.214 129.191L318.701 129.003L319.188 128.821L319.674 128.645L320.159 128.475L320.643 128.31L321.126 128.15L321.608 127.995L322.088 127.846L322.567 127.701L323.045 127.56L323.521 127.424L323.995 127.293L324.467 127.165L324.937 127.042L325.405 126.922L325.872 126.805L326.336 126.692L326.798 126.583L327.258 126.476L327.716 126.372L328.171 126.271L328.625 126.172L329.076 126.076L329.525 125.982L329.972 125.891L330.417 125.801L330.86 125.713L331.301 125.627L331.74 125.543L332.177 125.461L332.612 125.38L333.045 125.3L333.477 125.222L333.906 125.145L334.335 125.069L334.761 124.994L335.187 124.921L335.611 124.849L336.033 124.777L336.455 124.707L336.875 124.637L337.294 124.569L337.713 124.501L338.13 124.435L338.547 124.369L338.963 124.304L339.378 124.241L339.793 124.178L340.208 124.116L340.622 124.056L341.036 123.996L341.45 123.938L341.863 123.88L342.277 123.824L342.691 123.77L343.104 123.716L343.518 123.664L343.933 123.613L344.347 123.564L344.762 123.517L345.177 123.471L345.593 123.426L346.01 123.384L346.427 123.343L346.844 123.305L347.263 123.268L347.682 123.234L348.101 123.201L348.522 123.171L348.943 123.143L349.366 123.117L349.789 123.094L350.213 123.073L350.638 123.055L351.064 123.039L351.49 123.026L351.918 123.015L352.347 123.007L352.777 123.002L353.208 123L353.64 123.001L354.073 123.004L354.507 123.011L354.942 123.02L355.378 123.033L355.815 123.049L356.253 123.069L356.693 123.091L357.133 123.117L357.574 123.147L358.016 123.18L358.46 123.216L358.904 123.256L359.349 123.3L359.796 123.348L360.243 123.4L360.691 123.456L361.14 123.515L361.59 123.579L362.04 123.647L362.492 123.719L362.944 123.795L363.397 123.875L363.85 123.96L364.305 124.049L364.76 124.143L365.215 124.241L365.671 124.343L366.128 124.451L366.585 124.562L367.042 124.679L367.5 124.8L367.959 124.926L368.417 125.056L368.876 125.192L369.335 125.332L369.794 125.478L370.253 125.628L370.713 125.784L371.172 125.944L371.631 126.11L372.09 126.281L372.549 126.458L373.007 126.639L373.465 126.826L373.923 127.019L374.38 127.217L374.836 127.42L375.292 127.629L375.747 127.843L376.201 128.063L376.655 128.288L377.108 128.519L377.559 128.756L378.01 128.998L378.459 129.246L378.908 129.499L379.355 129.758L379.801 130.023L380.246 130.293L380.689 130.569L381.131 130.851L381.571 131.138L382.01 131.431L382.448 131.729L382.884 132.033L383.318 132.343L383.75 132.658L384.181 132.979L384.61 133.305L385.037 133.637L385.463 133.975L385.886 134.318L386.308 134.667L386.728 135.021L387.146 135.381L387.561 135.746L387.975 136.117L388.386 136.494L388.796 136.876L389.203 137.264L389.607 137.657L390.01 138.056L390.41 138.46L390.807 138.871L391.202 139.286L391.594 139.708L391.984 140.135L392.37 140.567L392.754 141.006L393.134 141.45L393.512 141.9L393.886 142.355L394.256 142.817L394.624 143.284L394.987 143.756L395.347 144.235L395.704 144.719L396.056 145.209L396.404 145.704L396.748 146.206L397.088 146.713L397.424 147.225L397.755 147.744L398.082 148.268L398.404 148.797L398.721 149.333L399.033 149.873L399.34 150.42L399.642 150.971L399.939 151.529L400.23 152.091L400.516 152.66L400.796 153.233L401.07 153.812L401.338 154.396L401.601 154.985L401.857 155.58L402.107 156.179L402.35 156.784L402.587 157.393L402.817 158.008L403.04 158.627L403.256 159.251L403.465 159.88L403.667 160.513" fill="url(#paint0_linear_99_25)"/>
<path fill-rule="evenodd" clip-rule="evenodd" d="M403.667 160.513V160.513L403.862 161.151L404.049 161.793L404.228 162.439L404.4 163.09L404.563 163.745L404.719 164.403L404.866 165.066L405.005 165.733L405.135 166.403L405.257 167.076L405.37 167.753L405.474 168.434L405.569 169.117L405.655 169.804L405.732 170.493L405.799 171.185L405.857 171.879L405.905 172.576L405.944 173.275L405.972 173.976L405.991 174.68L406 175.384L405.999 176.091L405.988 176.799L405.966 177.508L405.935 178.218L405.893 178.929L405.841 179.641L405.778 180.353L405.705 181.066L405.622 181.779L405.528 182.492L405.424 183.205L405.31 183.917L405.184 184.629L405.049 185.341L404.903 186.052L404.747 186.762L404.58 187.47L404.403 188.178L404.215 188.884L404.017 189.588L403.809 190.291L403.59 190.991L403.361 191.69L403.122 192.386L402.873 193.08L402.614 193.771L402.345 194.46L402.065 195.146L401.776 195.829L401.476 196.508L401.167 197.185L400.848 197.857L400.519 198.526L400.18 199.192L399.832 199.853L399.474 200.511L399.106 201.164L398.729 201.812L398.342 202.456L397.947 203.096L397.541 203.73L397.127 204.36L396.703 204.985L396.271 205.604L395.829 206.218L395.379 206.827L394.92 207.43L394.452 208.027L393.976 208.619L393.492 209.205L392.999 209.784L392.498 210.358L391.988 210.925L391.471 211.486L390.946 212.041L390.413 212.589L389.872 213.131L389.324 213.666L388.769 214.194L388.206 214.715L387.635 215.229L387.058 215.736L386.473 216.236L385.882 216.729L385.284 217.214L384.679 217.692L384.067 218.162L383.449 218.625L382.825 219.08L382.194 219.527L381.557 219.966L380.914 220.397L380.265 220.82L379.61 221.235L378.95 221.642L378.283 222.04L377.612 222.43L376.935 222.811L376.252 223.183L375.564 223.547L374.871 223.902L374.174 224.247L373.471 224.584L372.764 224.911L372.052 225.229L371.335 225.538L370.614 225.837L369.889 226.127L369.16 226.406L368.427 226.676L367.69 226.936L366.949 227.187L366.205 227.427L365.458 227.656L364.707 227.876L363.953 228.085L363.195 228.284L362.436 228.472L361.673 228.649L360.908 228.816L360.141 228.972L359.371 229.118L358.6 229.252L357.826 229.376L357.051 229.488L356.274 229.589L355.496 229.68L354.717 229.759L353.937 229.827L353.156 229.884L352.375 229.93L351.593 229.964L350.81 229.987L350.028 229.999L349.245 230L348.463 229.99L347.682 229.968L346.901 229.935L346.12 229.891L345.341 229.836L344.563 229.769L343.786 229.692L343.011 229.603L342.237 229.504L341.465 229.394L340.696 229.272L339.928 229.14L339.163 228.997L338.4 228.844L337.64 228.68L336.882 228.505L336.128 228.32L335.377 228.124L334.629 227.918L333.885 227.703L333.144 227.477L332.407 227.241L331.673 226.995L330.944 226.739L330.219 226.474L329.498 226.199L328.781 225.915L328.069 225.622L327.362 225.319L326.659 225.008L325.961 224.687L325.268 224.358L324.58 224.02L323.897 223.674L323.22 223.319L322.548 222.955L321.881 222.584L321.22 222.204L320.564 221.817L319.914 221.421L319.271 221.018L318.632 220.608L318 220.189L317.374 219.764L316.755 219.33L316.141 218.89L315.534 218.443L314.933 217.989L314.338 217.528L313.75 217.06L313.169 216.586L312.594 216.105L312.026 215.618L311.465 215.125L310.91 214.626L310.362 214.121L309.821 213.611L309.287 213.094L308.76 212.572L308.239 212.045L307.726 211.512L307.22 210.974L306.721 210.432L306.229 209.884L305.744 209.331L305.266 208.774L304.795 208.212L304.332 207.646L303.876 207.075L303.427 206.5L302.985 205.92L302.551 205.337L302.124 204.749L301.704 204.158L301.292 203.563L300.888 202.964L300.491 202.361L300.101 201.755L299.719 201.145L299.345 200.532L298.978 199.916L298.619 199.296L298.268 198.673L297.925 198.048L297.589 197.419L297.262 196.787L296.942 196.153L296.631 195.515L296.327 194.875L296.032 194.233L295.744 193.588L295.465 192.941L295.194 192.291L294.931 191.639L294.677 190.986L294.431 190.33L294.193 189.672L293.963 189.012L293.743 188.351L293.53 187.688L293.326 187.024L293.13 186.358L292.943 185.691L292.765 185.023L292.595 184.354L292.434 183.684L292.281 183.013L292.137 182.341L292.001 181.669L291.874 180.996L291.756 180.323L291.646 179.649L291.545 178.975L291.453 178.302L291.369 177.628L291.294 176.955L291.227 176.281L291.169 175.609L291.119 174.937L291.079 174.265L291.046 173.594L291.022 172.924L291.007 172.255L291 171.587L291.002 170.921L291.012 170.256L291.03 169.592L291.057 168.93L291.092 168.269L291.135 167.61L291.186 166.953L291.246 166.298L291.314 165.646L291.39 164.995L291.474 164.347L291.567 163.701L291.667 163.058L291.775 162.417L291.891 161.78L292.015 161.145L292.147 160.513L292.287 159.884L292.434 159.258L292.589 158.636L292.752 158.017L292.922 157.402L293.1 156.79L293.286 156.182L293.479 155.577L293.68 154.977L293.888 154.38L294.103 153.788L294.326 153.2L294.556 152.616L294.794 152.037L295.039 151.462L295.291 150.892L295.55 150.327L295.816 149.767L296.09 149.211L296.37 148.661L296.658 148.116L296.952 147.576L297.253 147.042L297.561 146.513L297.876 145.99L298.198 145.473L298.526 144.962L298.861 144.456L299.202 143.957L299.549 143.464L299.903 142.977L300.264 142.496L300.63 142.022L301.002 141.555L301.381 141.094L301.765 140.64L302.155 140.193L302.55 139.753L302.951 139.32L303.358 138.895L303.77 138.476L304.186 138.065L304.608 137.661L305.035 137.264L305.466 136.875L305.902 136.493L306.342 136.12L306.787 135.753L307.235 135.394L307.687 135.043L308.143 134.7L308.603 134.364L309.065 134.036L309.531 133.715L309.999 133.402L310.471 133.097L310.944 132.799L311.42 132.509L311.898 132.226L312.378 131.951L312.86 131.683L313.343 131.422L313.827 131.168L314.312 130.921L314.799 130.682L315.286 130.449L315.773 130.223L316.261 130.004L316.749 129.791L317.238 129.585L317.726 129.385L318.214 129.191L318.701 129.003L319.188 128.821L319.674 128.645L320.159 128.475L320.643 128.31L321.126 128.15L321.608 127.995L322.088 127.846L322.567 127.701L323.045 127.56L323.521 127.424L323.995 127.293L324.467 127.165L324.937 127.042L325.405 126.922L325.872 126.805L326.336 126.692L326.798 126.583L327.258 126.476L327.716 126.372L328.171 126.271L328.625 126.172L329.076 126.076L329.525 125.982L329.972 125.891L330.417 125.801L330.86 125.713L331.301 125.627L331.74 125.543L332.177 125.461L332.612 125.38L333.045 125.3L333.477 125.222L333.906 125.145L334.335 125.069L334.761 124.994L335.187 124.921L335.611 124.849L336.033 124.777L336.455 124.707L336.875 124.637L337.294 124.569L337.713 124.501L338.13 124.435L338.547 124.369L338.963 124.304L339.378 124.241L339.793 124.178L340.208 124.116L340.622 124.056L341.036 123.996L341.45 123.938L341.863 123.88L342.277 123.824L342.691 123.77L343.104 123.716L343.518 123.664L343.933 123.613L344.347 123.564L344.762 123.517L345.177 123.471L345.593 123.426L346.01 123.384L346.427 123.343L346.844 123.305L347.263 123.268L347.682 123.234L348.101 123.201L348.522 123.171L348.943 123.143L349.366 123.117L349.789 123.094L350.213 123.073L350.638 123.055L351.064 123.039L351.49 123.026L351.918 123.015L352.347 123.007L352.777 123.002L353.208 123L353.64 123.001L354.073 123.004L354.507 123.011L354.942 123.02L355.378 123.033L355.815 123.049L356.253 123.069L356.693 123.091L357.133 123.117L357.574 123.147L358.016 123.18L358.46 123.216L358.904 123.256L359.349 123.3L359.796 123.348L360.243 123.4L360.691 123.456L361.14 123.515L361.59 123.579L362.04 123.647L362.492 123.719L362.944 123.795L363.397 123.875L363.85 123.96L364.305 124.049L364.76 124.143L365.215 124.241L365.671 124.343L366.128 124.451L366.585 124.562L367.042 124.679L367.5 124.8L367.959 124.926L368.417 125.056L368.876 125.192L369.335 125.332L369.794 125.478L370.253 125.628L370.713 125.784L371.172 125.944L371.631 126.11L372.09 126.281L372.549 126.458L373.007 126.639L373.465 126.826L373.923 127.019L374.38 127.217L374.836 127.42L375.292 127.629L375.747 127.843L376.201 128.063L376.655 128.288L377.108 128.519L377.559 128.756L378.01 128.998L378.459 129.246L378.908 129.499L379.355 129.758L379.801 130.023L380.246 130.293L380.689 130.569L381.131 130.851L381.571 131.138L382.01 131.431L382.448 131.729L382.884 132.033L383.318 132.343L383.75 132.658L384.181 132.979L384.61 133.305L385.037 133.637L385.463 133.975L385.886 134.318L386.308 134.667L386.728 135.021L387.146 135.381L387.561 135.746L387.975 136.117L388.386 136.494L388.796 136.876L389.203 137.264L389.607 137.657L390.01 138.056L390.41 138.46L390.807 138.871L391.202 139.286L391.594 139.708L391.984 140.135L392.37 140.567L392.754 141.006L393.134 141.45L393.512 141.9L393.886 142.355L394.256 142.817L394.624 143.284L394.987 143.756L395.347 144.235L395.704 144.719L396.056 145.209L396.404 145.704L396.748 146.206L397.088 146.713L397.424 147.225L397.755 147.744L398.082 148.268L398.404 148.797L398.721 149.333L399.033 149.873L399.34 150.42L399.642 150.971L399.939 151.529L400.23 152.091L400.516 152.66L400.796 153.233L401.07 153.812L401.338 154.396L401.601 154.985L401.857 155.58L402.107 156.179L402.35 156.784L402.587 157.393L402.817 158.008L403.04 158.627L403.256 159.251L403.465 159.88L403.667 160.513" fill="url(#paint1_linear_99_25)"/>
</g>
<path d="M312.052 153.011L350.026 131L388 153.011L350.026 175.021L312.052 153.011Z" fill="url(#paint2_linear_99_25)"/>
<path d="M387.917 152.962L387.915 196.986L349.943 219L349.944 174.976L387.917 152.962Z" fill="url(#paint3_linear_99_25)"/>
<path d="M349.974 219L349.972 174.976L312 152.962L312.002 196.986L349.974 219Z" fill="url(#paint4_linear_99_25)"/>
<defs>
<filter id="filter0_f_99_25" x="211" y="43" width="275" height="267" filterUnits="userSpaceOnUse" color-interpolation-filters="sRGB">
<feFlood flood-opacity="0" result="BackgroundImageFix"/>
<feBlend mode="normal" in="SourceGraphic" in2="BackgroundImageFix" result="shape"/>
<feGaussianBlur stdDeviation="40" result="effect1_foregroundBlur_99_25"/>
</filter>
<linearGradient id="paint0_linear_99_25" x1="309" y1="145.5" x2="352.576" y2="225.095" gradientUnits="userSpaceOnUse">
<stop stop-color="#2B4778"/>
<stop offset="1" stop-color="#2F6934"/>
</linearGradient>
<linearGradient id="paint1_linear_99_25" x1="309" y1="145.5" x2="352.576" y2="225.095" gradientUnits="userSpaceOnUse">
<stop stop-color="#2B4778"/>
<stop offset="1" stop-color="#2F6934"/>
</linearGradient>
<linearGradient id="paint2_linear_99_25" x1="351.558" y1="216.95" x2="351.558" y2="101.353" gradientUnits="userSpaceOnUse">
<stop stop-color="#4DFFDF"/>
<stop offset="1" stop-color="#262E58"/>
</linearGradient>
<linearGradient id="paint3_linear_99_25" x1="351.322" y1="241.18" x2="342.875" y2="82.2891" gradientUnits="userSpaceOnUse">
<stop stop-color="#2E9986"/>
<stop offset="1" stop-color="#4DFFDF"/>
</linearGradient>
<linearGradient id="paint4_linear_99_25" x1="368.126" y1="207.621" x2="306.973" y2="207.341" gradientUnits="userSpaceOnUse">
<stop stop-color="#2E9986"/>
<stop offset="0.0001" stop-color="#2E9986"/>
<stop offset="1" stop-color="#262E58"/>
</linearGradient>
</defs>
</svg>
