<svg width="700" height="700" viewBox="0 0 700 700" fill="none" xmlns="http://www.w3.org/2000/svg">
<mask id="path-1-inside-1_99_2" fill="white">
<path d="M501.686 437.756L349.065 525.88L349.071 349.644L501.693 261.521L501.686 437.756Z"/>
</mask>
<path d="M501.686 437.756L501.686 438.756L502.552 438.256L502.552 437.256L501.686 437.756ZM502.552 437.256L502.552 435.298L500.82 436.298L500.82 438.257L502.552 437.256ZM502.552 427.466L502.553 423.549L500.821 424.549L500.82 428.466L502.552 427.466ZM502.553 415.716L502.553 411.8L500.821 412.8L500.821 416.717L502.553 415.716ZM502.553 403.967L502.553 400.051L500.821 401.051L500.821 404.967L502.553 403.967ZM502.554 392.218L502.554 388.302L500.822 389.302L500.822 393.218L502.554 392.218ZM502.554 380.469L502.554 376.553L500.822 377.553L500.822 381.469L502.554 380.469ZM502.555 368.72L502.555 364.804L500.823 365.804L500.823 369.72L502.555 368.72ZM502.555 356.971L502.555 353.055L500.823 354.055L500.823 357.971L502.555 356.971ZM502.555 345.222L502.556 341.306L500.824 342.306L500.823 346.222L502.555 345.222ZM502.556 333.473L502.556 329.557L500.824 330.557L500.824 334.473L502.556 333.473ZM502.556 321.724L502.557 317.808L500.825 318.808L500.824 322.724L502.556 321.724ZM502.557 309.975L502.557 306.059L500.825 307.059L500.825 310.975L502.557 309.975ZM502.557 298.226L502.557 294.31L500.825 295.31L500.825 299.226L502.557 298.226ZM502.558 286.477L502.558 282.561L500.826 283.561L500.826 287.477L502.558 286.477ZM502.558 274.728L502.558 270.811L500.826 271.812L500.826 275.728L502.558 274.728ZM502.559 262.979L502.559 261.021L500.827 262.021L500.827 263.979L502.559 262.979ZM349.065 526.88L350.76 525.901L350.76 523.901L349.065 524.88L349.065 526.88ZM357.543 521.984L360.935 520.026L360.935 518.026L357.544 519.984L357.543 521.984ZM367.718 516.109L371.11 514.151L371.11 512.151L367.718 514.109L367.718 516.109ZM377.893 510.235L381.285 508.276L381.285 506.276L377.893 508.235L377.893 510.235ZM388.068 504.36L391.459 502.401L391.459 500.401L388.068 502.36L388.068 504.36ZM398.243 498.485L401.634 496.526L401.634 494.526L398.243 496.485L398.243 498.485ZM408.417 492.61L411.809 490.652L411.809 488.652L408.417 490.61L408.417 492.61ZM418.592 486.735L421.984 484.777L421.984 482.777L418.592 484.735L418.592 486.735ZM428.767 480.86L432.158 478.902L432.158 476.902L428.767 478.86L428.767 480.86ZM438.942 474.985L442.333 473.027L442.333 471.027L438.942 472.985L438.942 474.985ZM449.116 469.11L452.508 467.152L452.508 465.152L449.116 467.11L449.116 469.11ZM459.291 463.235L462.683 461.277L462.683 459.277L459.291 461.235L459.291 463.235ZM469.466 457.36L472.857 455.402L472.858 453.402L469.466 455.36L469.466 457.36ZM479.641 451.485L483.032 449.527L483.032 447.527L479.641 449.485L479.641 451.485ZM489.815 445.611L493.207 443.652L493.207 441.652L489.815 443.611L489.815 445.611ZM499.99 439.736L501.686 438.756L501.686 436.756L499.99 437.736L499.99 439.736ZM501.686 437.756L501.686 439.756L503.418 438.756L503.418 436.756L501.686 437.756ZM503.418 436.756L503.418 434.798L499.954 436.798L499.954 438.757L503.418 436.756ZM503.418 426.966L503.419 423.049L499.955 425.049L499.954 428.966L503.418 426.966ZM503.419 415.216L503.419 411.3L499.955 413.3L499.955 417.217L503.419 415.216ZM503.419 403.467L503.419 399.551L499.955 401.551L499.955 405.468L503.419 403.467ZM503.42 391.718L503.42 387.802L499.956 389.802L499.956 393.718L503.42 391.718ZM503.42 379.969L503.42 376.053L499.956 378.053L499.956 381.969L503.42 379.969ZM503.421 368.22L503.421 364.304L499.957 366.304L499.957 370.22L503.421 368.22ZM503.421 356.471L503.421 352.555L499.957 354.555L499.957 358.471L503.421 356.471ZM503.421 344.722L503.422 340.806L499.958 342.806L499.957 346.722L503.421 344.722ZM503.422 332.973L503.422 329.057L499.958 331.057L499.958 334.973L503.422 332.973ZM503.422 321.224L503.423 317.308L499.959 319.308L499.958 323.224L503.422 321.224ZM503.423 309.475L503.423 305.559L499.959 307.559L499.959 311.475L503.423 309.475ZM503.423 297.726L503.423 293.81L499.959 295.81L499.959 299.726L503.423 297.726ZM503.424 285.977L503.424 282.06L499.96 284.061L499.96 287.977L503.424 285.977ZM503.424 274.228L503.424 270.311L499.96 272.312L499.96 276.228L503.424 274.228ZM503.425 262.479L503.425 260.52L499.961 262.521L499.961 264.479L503.425 262.479ZM349.064 527.88L350.76 526.901L350.76 522.901L349.065 523.88L349.064 527.88ZM357.543 522.984L360.935 521.026L360.935 517.026L357.544 518.984L357.543 522.984ZM367.718 517.109L371.11 515.151L371.11 511.151L367.718 513.109L367.718 517.109ZM377.893 511.235L381.285 509.276L381.285 505.276L377.893 507.235L377.893 511.235ZM388.068 505.36L391.459 503.401L391.459 499.401L388.068 501.36L388.068 505.36ZM398.242 499.485L401.634 497.526L401.634 493.526L398.243 495.485L398.242 499.485ZM408.417 493.61L411.809 491.652L411.809 487.652L408.417 489.61L408.417 493.61ZM418.592 487.735L421.984 485.777L421.984 481.777L418.592 483.735L418.592 487.735ZM428.767 481.86L432.158 479.902L432.159 475.902L428.767 477.86L428.767 481.86ZM438.942 475.985L442.333 474.027L442.333 470.027L438.942 471.985L438.942 475.985ZM449.116 470.11L452.508 468.152L452.508 464.152L449.116 466.11L449.116 470.11ZM459.291 464.235L462.683 462.277L462.683 458.277L459.291 460.235L459.291 464.235ZM469.466 458.36L472.857 456.402L472.858 452.402L469.466 454.36L469.466 458.36ZM479.641 452.485L483.032 450.527L483.032 446.527L479.641 448.485L479.641 452.485ZM489.815 446.611L493.207 444.652L493.207 440.652L489.815 442.611L489.815 446.611ZM499.99 440.736L501.686 439.756L501.686 435.756L499.99 436.736L499.99 440.736Z" fill="#761AA1" mask="url(#path-1-inside-1_99_2)"/>
<rect y="0.999935" width="174.236" height="174.236" transform="matrix(0.866044 0.499967 -0.866044 0.499967 350.373 174.5)" stroke="#761AA1" stroke-width="2" stroke-dasharray="4 8"/>
<mask id="path-4-inside-2_99_2" fill="white">
<path d="M349.929 349.644L349.935 525.88L197.314 437.756L197.307 261.52L349.929 349.644Z"/>
</mask>
<path d="M349.935 525.88L349.935 526.88L350.801 527.38L350.801 526.38L349.935 525.88ZM197.314 437.756L196.448 437.256L196.448 438.256L197.314 438.756L197.314 437.756ZM196.441 261.02L196.441 262.979L198.173 263.979L198.173 262.02L196.441 261.02ZM196.442 270.811L196.442 274.728L198.174 275.728L198.174 271.811L196.442 270.811ZM196.442 282.56L196.442 286.477L198.174 287.477L198.174 283.56L196.442 282.56ZM196.443 294.309L196.443 298.226L198.175 299.226L198.175 295.309L196.443 294.309ZM196.443 306.058L196.443 309.975L198.175 310.975L198.175 307.059L196.443 306.058ZM196.443 317.808L196.444 321.724L198.176 322.724L198.175 318.808L196.443 317.808ZM196.444 329.557L196.444 333.473L198.176 334.473L198.176 330.557L196.444 329.557ZM196.444 341.306L196.444 345.222L198.176 346.222L198.176 342.306L196.444 341.306ZM196.445 353.055L196.445 356.971L198.177 357.971L198.177 354.055L196.445 353.055ZM196.445 364.804L196.445 368.72L198.177 369.72L198.177 365.804L196.445 364.804ZM196.446 376.553L196.446 380.469L198.178 381.469L198.178 377.553L196.446 376.553ZM196.446 388.302L196.446 392.218L198.178 393.218L198.178 389.302L196.446 388.302ZM196.447 400.051L196.447 403.967L198.179 404.967L198.179 401.051L196.447 400.051ZM196.447 411.8L196.447 415.716L198.179 416.716L198.179 412.8L196.447 411.8ZM196.447 423.549L196.448 427.465L198.18 428.465L198.179 424.549L196.447 423.549ZM196.448 435.298L196.448 437.256L198.18 438.256L198.18 436.298L196.448 435.298ZM197.314 438.756L199.01 439.736L199.01 437.736L197.314 436.756L197.314 438.756ZM205.793 443.652L209.185 445.61L209.184 443.61L205.793 441.652L205.793 443.652ZM215.968 449.527L219.359 451.485L219.359 449.485L215.968 447.527L215.968 449.527ZM226.142 455.402L229.534 457.36L229.534 455.36L226.142 453.402L226.142 455.402ZM236.317 461.277L239.709 463.235L239.709 461.235L236.317 459.277L236.317 461.277ZM246.492 467.152L249.884 469.11L249.884 467.11L246.492 465.152L246.492 467.152ZM256.667 473.027L260.058 474.985L260.058 472.985L256.667 471.027L256.667 473.027ZM266.842 478.902L270.233 480.86L270.233 478.86L266.841 476.902L266.842 478.902ZM277.016 484.777L280.408 486.735L280.408 484.735L277.016 482.777L277.016 484.777ZM287.191 490.651L290.583 492.61L290.583 490.61L287.191 488.651L287.191 490.651ZM297.366 496.526L300.757 498.485L300.757 496.485L297.366 494.526L297.366 496.526ZM307.541 502.401L310.932 504.36L310.932 502.36L307.54 500.401L307.541 502.401ZM317.715 508.276L321.107 510.234L321.107 508.234L317.715 506.276L317.715 508.276ZM327.89 514.151L331.282 516.109L331.282 514.109L327.89 512.151L327.89 514.151ZM338.065 520.026L341.456 521.984L341.456 519.984L338.065 518.026L338.065 520.026ZM348.24 525.901L349.935 526.88L349.935 524.88L348.24 523.901L348.24 525.901ZM350.801 526.38L350.801 524.422L349.069 523.422L349.069 525.38L350.801 526.38ZM350.801 516.589L350.801 512.673L349.069 511.673L349.069 515.589L350.801 516.589ZM350.801 504.84L350.8 500.924L349.068 499.924L349.069 503.84L350.801 504.84ZM350.8 493.091L350.8 489.175L349.068 488.175L349.068 492.091L350.8 493.091ZM350.8 481.342L350.8 477.426L349.068 476.426L349.068 480.342L350.8 481.342ZM350.799 469.593L350.799 465.677L349.067 464.677L349.067 468.593L350.799 469.593ZM350.799 457.844L350.799 453.928L349.067 452.928L349.067 456.844L350.799 457.844ZM350.798 446.095L350.798 442.179L349.066 441.178L349.066 445.095L350.798 446.095ZM350.798 434.346L350.798 430.429L349.066 429.429L349.066 433.346L350.798 434.346ZM350.797 422.597L350.797 418.68L349.065 417.68L349.065 421.597L350.797 422.597ZM350.797 410.848L350.797 406.931L349.065 405.931L349.065 409.848L350.797 410.848ZM350.797 399.099L350.796 395.182L349.064 394.182L349.065 398.099L350.797 399.099ZM350.796 387.35L350.796 383.433L349.064 382.433L349.064 386.35L350.796 387.35ZM350.796 375.601L350.796 371.684L349.064 370.684L349.064 374.6L350.796 375.601ZM350.795 363.851L350.795 359.935L349.063 358.935L349.063 362.851L350.795 363.851ZM350.795 352.102L350.795 350.144L349.063 349.144L349.063 351.102L350.795 352.102ZM349.935 525.88L349.935 527.88L351.667 528.88L351.667 526.88L349.935 525.88ZM197.314 437.756L195.582 436.756L195.582 438.756L197.314 439.756L197.314 437.756ZM195.575 260.52L195.575 262.479L199.039 264.479L199.039 262.521L195.575 260.52ZM195.576 270.311L195.576 274.228L199.04 276.228L199.04 272.311L195.576 270.311ZM195.576 282.06L195.576 285.977L199.04 287.977L199.04 284.06L195.576 282.06ZM195.577 293.809L195.577 297.726L199.041 299.726L199.041 295.81L195.577 293.809ZM195.577 305.558L195.577 309.475L199.041 311.475L199.041 307.559L195.577 305.558ZM195.577 317.308L195.578 321.224L199.042 323.224L199.041 319.308L195.577 317.308ZM195.578 329.057L195.578 332.973L199.042 334.973L199.042 331.057L195.578 329.057ZM195.578 340.806L195.578 344.722L199.042 346.722L199.042 342.806L195.578 340.806ZM195.579 352.555L195.579 356.471L199.043 358.471L199.043 354.555L195.579 352.555ZM195.579 364.304L195.579 368.22L199.043 370.22L199.043 366.304L195.579 364.304ZM195.58 376.053L195.58 379.969L199.044 381.969L199.044 378.053L195.58 376.053ZM195.58 387.802L195.58 391.718L199.044 393.718L199.044 389.802L195.58 387.802ZM195.581 399.551L195.581 403.467L199.045 405.467L199.045 401.551L195.581 399.551ZM195.581 411.3L195.581 415.216L199.045 417.216L199.045 413.3L195.581 411.3ZM195.581 423.049L195.582 426.965L199.046 428.965L199.045 425.049L195.581 423.049ZM195.582 434.798L195.582 436.756L199.046 438.756L199.046 436.798L195.582 434.798ZM197.314 439.756L199.01 440.736L199.01 436.736L197.314 435.756L197.314 439.756ZM205.793 444.652L209.185 446.61L209.184 442.61L205.793 440.652L205.793 444.652ZM215.968 450.527L219.359 452.485L219.359 448.485L215.968 446.527L215.968 450.527ZM226.143 456.402L229.534 458.36L229.534 454.36L226.142 452.402L226.143 456.402ZM236.317 462.277L239.709 464.235L239.709 460.235L236.317 458.277L236.317 462.277ZM246.492 468.152L249.884 470.11L249.883 466.11L246.492 464.152L246.492 468.152ZM256.667 474.027L260.058 475.985L260.058 471.985L256.667 470.027L256.667 474.027ZM266.842 479.902L270.233 481.86L270.233 477.86L266.841 475.902L266.842 479.902ZM277.016 485.777L280.408 487.735L280.408 483.735L277.016 481.777L277.016 485.777ZM287.191 491.651L290.583 493.61L290.583 489.61L287.191 487.651L287.191 491.651ZM297.366 497.526L300.757 499.485L300.757 495.485L297.366 493.526L297.366 497.526ZM307.541 503.401L310.932 505.36L310.932 501.36L307.54 499.401L307.541 503.401ZM317.715 509.276L321.107 511.234L321.107 507.234L317.715 505.276L317.715 509.276ZM327.89 515.151L331.282 517.109L331.282 513.109L327.89 511.151L327.89 515.151ZM338.065 521.026L341.456 522.984L341.456 518.984L338.065 517.026L338.065 521.026ZM348.24 526.901L349.935 527.88L349.935 523.88L348.239 522.901L348.24 526.901ZM351.667 526.88L351.667 524.922L348.203 522.922L348.203 524.88L351.667 526.88ZM351.667 517.089L351.667 513.173L348.203 511.173L348.203 515.089L351.667 517.089ZM351.667 505.34L351.666 501.424L348.202 499.424L348.203 503.34L351.667 505.34ZM351.666 493.591L351.666 489.675L348.202 487.675L348.202 491.591L351.666 493.591ZM351.666 481.842L351.666 477.926L348.202 475.926L348.202 479.842L351.666 481.842ZM351.665 470.093L351.665 466.177L348.201 464.177L348.201 468.093L351.665 470.093ZM351.665 458.344L351.665 454.428L348.201 452.427L348.201 456.344L351.665 458.344ZM351.664 446.595L351.664 442.679L348.2 440.678L348.2 444.595L351.664 446.595ZM351.664 434.846L351.664 430.929L348.2 428.929L348.2 432.846L351.664 434.846ZM351.663 423.097L351.663 419.18L348.199 417.18L348.199 421.097L351.663 423.097ZM351.663 411.348L351.663 407.431L348.199 405.431L348.199 409.348L351.663 411.348ZM351.663 399.599L351.662 395.682L348.198 393.682L348.199 397.599L351.663 399.599ZM351.662 387.85L351.662 383.933L348.198 381.933L348.198 385.849L351.662 387.85ZM351.662 376.101L351.662 372.184L348.198 370.184L348.198 374.1L351.662 376.101ZM351.661 364.352L351.661 360.435L348.197 358.435L348.197 362.351L351.661 364.352ZM351.661 352.602L351.661 350.644L348.197 348.644L348.197 350.602L351.661 352.602Z" fill="#761AA1" mask="url(#path-4-inside-2_99_2)"/>
</svg>
