<svg width="700" height="700" viewBox="0 0 700 700" fill="none" xmlns="http://www.w3.org/2000/svg">
<g filter="url(#filter0_f_99_140)">
<path fill-rule="evenodd" clip-rule="evenodd" d="M553.667 423.513V423.513L553.862 424.151L554.049 424.793L554.228 425.439L554.4 426.09L554.563 426.745L554.719 427.403L554.866 428.066L555.005 428.733L555.135 429.403L555.257 430.076L555.37 430.753L555.474 431.434L555.569 432.117L555.655 432.804L555.732 433.493L555.799 434.185L555.857 434.879L555.905 435.576L555.944 436.275L555.972 436.976L555.991 437.68L556 438.384L555.999 439.091L555.988 439.799L555.966 440.508L555.935 441.218L555.893 441.929L555.841 442.641L555.778 443.353L555.705 444.066L555.622 444.779L555.528 445.492L555.424 446.205L555.31 446.917L555.185 447.629L555.049 448.341L554.903 449.052L554.747 449.762L554.58 450.47L554.403 451.178L554.215 451.884L554.017 452.588L553.809 453.291L553.59 453.991L553.362 454.69L553.123 455.386L552.873 456.08L552.614 456.771L552.345 457.46L552.065 458.146L551.776 458.829L551.476 459.508L551.167 460.185L550.848 460.857L550.519 461.526L550.18 462.192L549.832 462.853L549.474 463.511L549.106 464.164L548.729 464.812L548.343 465.456L547.947 466.096L547.541 466.73L547.127 467.36L546.703 467.985L546.271 468.604L545.829 469.218L545.379 469.827L544.92 470.43L544.452 471.027L543.976 471.619L543.492 472.205L542.999 472.784L542.498 473.358L541.988 473.925L541.471 474.486L540.946 475.041L540.413 475.589L539.872 476.131L539.324 476.666L538.769 477.194L538.206 477.715L537.635 478.229L537.058 478.736L536.473 479.236L535.882 479.729L535.284 480.214L534.679 480.692L534.067 481.162L533.449 481.625L532.825 482.08L532.194 482.527L531.557 482.966L530.914 483.397L530.265 483.82L529.61 484.235L528.95 484.642L528.284 485.04L527.612 485.43L526.935 485.811L526.252 486.183L525.564 486.547L524.872 486.902L524.174 487.247L523.471 487.584L522.764 487.911L522.052 488.229L521.335 488.538L520.614 488.837L519.889 489.127L519.16 489.406L518.427 489.676L517.69 489.936L516.949 490.187L516.205 490.427L515.458 490.656L514.707 490.876L513.953 491.085L513.196 491.284L512.436 491.472L511.673 491.649L510.908 491.816L510.141 491.972L509.371 492.118L508.6 492.252L507.826 492.376L507.051 492.488L506.274 492.589L505.496 492.68L504.717 492.759L503.937 492.827L503.156 492.884L502.375 492.93L501.593 492.964L500.81 492.987L500.028 492.999L499.245 493L498.463 492.99L497.682 492.968L496.901 492.935L496.12 492.891L495.341 492.836L494.563 492.769L493.786 492.692L493.011 492.603L492.237 492.504L491.465 492.394L490.696 492.272L489.928 492.14L489.163 491.997L488.4 491.844L487.64 491.68L486.882 491.505L486.128 491.32L485.377 491.124L484.629 490.918L483.885 490.703L483.144 490.477L482.407 490.241L481.673 489.995L480.944 489.739L480.219 489.474L479.498 489.199L478.781 488.915L478.069 488.622L477.362 488.319L476.659 488.008L475.961 487.687L475.268 487.358L474.58 487.02L473.897 486.674L473.22 486.319L472.548 485.955L471.881 485.584L471.22 485.204L470.564 484.817L469.915 484.421L469.271 484.018L468.633 483.608L468 483.189L467.374 482.764L466.755 482.33L466.141 481.89L465.534 481.443L464.933 480.989L464.338 480.528L463.75 480.06L463.169 479.586L462.594 479.105L462.026 478.618L461.465 478.125L460.91 477.626L460.362 477.121L459.821 476.611L459.287 476.094L458.76 475.572L458.24 475.045L457.726 474.512L457.22 473.974L456.721 473.432L456.229 472.884L455.744 472.331L455.266 471.774L454.795 471.212L454.332 470.646L453.876 470.075L453.427 469.5L452.985 468.92L452.551 468.337L452.124 467.749L451.704 467.158L451.292 466.563L450.888 465.964L450.491 465.361L450.101 464.755L449.719 464.145L449.345 463.532L448.978 462.916L448.619 462.296L448.268 461.673L447.925 461.048L447.59 460.419L447.262 459.787L446.942 459.153L446.631 458.515L446.327 457.875L446.032 457.233L445.744 456.588L445.465 455.941L445.194 455.291L444.931 454.639L444.677 453.986L444.431 453.33L444.193 452.672L443.964 452.012L443.743 451.351L443.53 450.688L443.326 450.024L443.131 449.358L442.944 448.691L442.765 448.023L442.595 447.354L442.434 446.684L442.281 446.013L442.137 445.341L442.001 444.669L441.874 443.996L441.756 443.323L441.646 442.649L441.545 441.975L441.453 441.302L441.369 440.628L441.294 439.955L441.227 439.281L441.169 438.609L441.12 437.937L441.079 437.265L441.046 436.594L441.022 435.924L441.007 435.255L441 434.587L441.002 433.921L441.012 433.256L441.03 432.592L441.057 431.93L441.092 431.269L441.135 430.61L441.187 429.953L441.246 429.298L441.314 428.646L441.39 427.995L441.474 427.347L441.567 426.701L441.667 426.058L441.775 425.417L441.891 424.78L442.015 424.145L442.147 423.513L442.287 422.884L442.434 422.258L442.589 421.636L442.752 421.017L442.922 420.402L443.1 419.79L443.286 419.182L443.479 418.577L443.68 417.977L443.888 417.38L444.103 416.788L444.326 416.2L444.556 415.616L444.794 415.037L445.039 414.462L445.291 413.892L445.55 413.327L445.816 412.767L446.09 412.211L446.37 411.661L446.658 411.116L446.952 410.576L447.253 410.042L447.561 409.513L447.876 408.99L448.198 408.473L448.526 407.962L448.861 407.456L449.202 406.957L449.549 406.464L449.903 405.977L450.264 405.496L450.63 405.022L451.002 404.555L451.381 404.094L451.765 403.64L452.155 403.193L452.55 402.753L452.951 402.32L453.358 401.895L453.77 401.476L454.186 401.065L454.608 400.661L455.035 400.264L455.466 399.875L455.902 399.493L456.342 399.12L456.787 398.753L457.235 398.394L457.687 398.043L458.143 397.7L458.603 397.364L459.065 397.036L459.531 396.715L459.999 396.402L460.471 396.097L460.944 395.799L461.42 395.509L461.898 395.226L462.378 394.951L462.86 394.683L463.343 394.422L463.827 394.168L464.312 393.921L464.799 393.682L465.286 393.449L465.773 393.223L466.261 393.004L466.75 392.791L467.238 392.585L467.726 392.385L468.214 392.191L468.701 392.003L469.188 391.821L469.674 391.645L470.159 391.475L470.643 391.31L471.126 391.15L471.608 390.995L472.089 390.846L472.568 390.701L473.045 390.56L473.521 390.424L473.995 390.293L474.467 390.165L474.937 390.042L475.405 389.922L475.872 389.805L476.336 389.692L476.798 389.583L477.258 389.476L477.716 389.372L478.171 389.271L478.625 389.172L479.076 389.076L479.525 388.982L479.972 388.891L480.417 388.801L480.86 388.713L481.301 388.627L481.74 388.543L482.177 388.461L482.612 388.38L483.045 388.3L483.477 388.222L483.907 388.145L484.335 388.069L484.762 387.994L485.187 387.921L485.611 387.849L486.033 387.777L486.455 387.707L486.875 387.637L487.294 387.569L487.713 387.501L488.13 387.435L488.547 387.369L488.963 387.304L489.378 387.241L489.793 387.178L490.208 387.116L490.622 387.056L491.036 386.996L491.45 386.938L491.863 386.88L492.277 386.824L492.691 386.77L493.104 386.716L493.518 386.664L493.933 386.613L494.347 386.564L494.762 386.517L495.177 386.471L495.593 386.426L496.01 386.384L496.427 386.343L496.844 386.305L497.263 386.268L497.682 386.234L498.102 386.201L498.522 386.171L498.943 386.143L499.366 386.117L499.789 386.094L500.213 386.073L500.638 386.055L501.064 386.039L501.491 386.026L501.918 386.015L502.347 386.007L502.777 386.002L503.208 386L503.64 386.001L504.073 386.004L504.507 386.011L504.942 386.02L505.378 386.033L505.815 386.049L506.253 386.069L506.693 386.091L507.133 386.117L507.574 386.147L508.017 386.18L508.46 386.216L508.904 386.256L509.35 386.3L509.796 386.348L510.243 386.4L510.691 386.456L511.14 386.515L511.59 386.579L512.04 386.647L512.492 386.719L512.944 386.795L513.397 386.875L513.851 386.96L514.305 387.049L514.76 387.143L515.215 387.241L515.671 387.343L516.128 387.451L516.585 387.562L517.042 387.679L517.5 387.8L517.959 387.926L518.417 388.056L518.876 388.192L519.335 388.332L519.794 388.478L520.253 388.628L520.713 388.784L521.172 388.944L521.631 389.11L522.09 389.281L522.549 389.458L523.007 389.639L523.465 389.826L523.923 390.019L524.38 390.217L524.836 390.42L525.292 390.629L525.747 390.843L526.202 391.063L526.655 391.288L527.108 391.519L527.559 391.756L528.01 391.998L528.46 392.246L528.908 392.499L529.355 392.758L529.801 393.023L530.246 393.293L530.689 393.569L531.131 393.851L531.571 394.138L532.01 394.431L532.448 394.729L532.884 395.033L533.318 395.343L533.75 395.658L534.181 395.979L534.61 396.305L535.037 396.637L535.463 396.975L535.887 397.318L536.308 397.667L536.728 398.021L537.146 398.381L537.561 398.746L537.975 399.117L538.386 399.494L538.796 399.876L539.203 400.264L539.608 400.657L540.01 401.056L540.41 401.46L540.807 401.871L541.202 402.286L541.594 402.708L541.984 403.135L542.37 403.567L542.754 404.006L543.134 404.45L543.512 404.9L543.886 405.355L544.256 405.817L544.624 406.284L544.987 406.756L545.347 407.235L545.704 407.719L546.056 408.209L546.404 408.704L546.748 409.206L547.088 409.713L547.424 410.225L547.755 410.744L548.082 411.268L548.404 411.797L548.721 412.333L549.033 412.873L549.34 413.42L549.642 413.971L549.939 414.529L550.23 415.091L550.516 415.66L550.796 416.233L551.07 416.812L551.339 417.396L551.601 417.985L551.857 418.58L552.107 419.179L552.35 419.784L552.587 420.393L552.817 421.008L553.04 421.627L553.256 422.251L553.465 422.88L553.667 423.513" fill="url(#paint0_linear_99_140)"/>
<path fill-rule="evenodd" clip-rule="evenodd" d="M553.667 423.513V423.513L553.862 424.151L554.049 424.793L554.228 425.439L554.4 426.09L554.563 426.745L554.719 427.403L554.866 428.066L555.005 428.733L555.135 429.403L555.257 430.076L555.37 430.753L555.474 431.434L555.569 432.117L555.655 432.804L555.732 433.493L555.799 434.185L555.857 434.879L555.905 435.576L555.944 436.275L555.972 436.976L555.991 437.68L556 438.384L555.999 439.091L555.988 439.799L555.966 440.508L555.935 441.218L555.893 441.929L555.841 442.641L555.778 443.353L555.705 444.066L555.622 444.779L555.528 445.492L555.424 446.205L555.31 446.917L555.185 447.629L555.049 448.341L554.903 449.052L554.747 449.762L554.58 450.47L554.403 451.178L554.215 451.884L554.017 452.588L553.809 453.291L553.59 453.991L553.362 454.69L553.123 455.386L552.873 456.08L552.614 456.771L552.345 457.46L552.065 458.146L551.776 458.829L551.476 459.508L551.167 460.185L550.848 460.857L550.519 461.526L550.18 462.192L549.832 462.853L549.474 463.511L549.106 464.164L548.729 464.812L548.343 465.456L547.947 466.096L547.541 466.73L547.127 467.36L546.703 467.985L546.271 468.604L545.829 469.218L545.379 469.827L544.92 470.43L544.452 471.027L543.976 471.619L543.492 472.205L542.999 472.784L542.498 473.358L541.988 473.925L541.471 474.486L540.946 475.041L540.413 475.589L539.872 476.131L539.324 476.666L538.769 477.194L538.206 477.715L537.635 478.229L537.058 478.736L536.473 479.236L535.882 479.729L535.284 480.214L534.679 480.692L534.067 481.162L533.449 481.625L532.825 482.08L532.194 482.527L531.557 482.966L530.914 483.397L530.265 483.82L529.61 484.235L528.95 484.642L528.284 485.04L527.612 485.43L526.935 485.811L526.252 486.183L525.564 486.547L524.872 486.902L524.174 487.247L523.471 487.584L522.764 487.911L522.052 488.229L521.335 488.538L520.614 488.837L519.889 489.127L519.16 489.406L518.427 489.676L517.69 489.936L516.949 490.187L516.205 490.427L515.458 490.656L514.707 490.876L513.953 491.085L513.196 491.284L512.436 491.472L511.673 491.649L510.908 491.816L510.141 491.972L509.371 492.118L508.6 492.252L507.826 492.376L507.051 492.488L506.274 492.589L505.496 492.68L504.717 492.759L503.937 492.827L503.156 492.884L502.375 492.93L501.593 492.964L500.81 492.987L500.028 492.999L499.245 493L498.463 492.99L497.682 492.968L496.901 492.935L496.12 492.891L495.341 492.836L494.563 492.769L493.786 492.692L493.011 492.603L492.237 492.504L491.465 492.394L490.696 492.272L489.928 492.14L489.163 491.997L488.4 491.844L487.64 491.68L486.882 491.505L486.128 491.32L485.377 491.124L484.629 490.918L483.885 490.703L483.144 490.477L482.407 490.241L481.673 489.995L480.944 489.739L480.219 489.474L479.498 489.199L478.781 488.915L478.069 488.622L477.362 488.319L476.659 488.008L475.961 487.687L475.268 487.358L474.58 487.02L473.897 486.674L473.22 486.319L472.548 485.955L471.881 485.584L471.22 485.204L470.564 484.817L469.915 484.421L469.271 484.018L468.633 483.608L468 483.189L467.374 482.764L466.755 482.33L466.141 481.89L465.534 481.443L464.933 480.989L464.338 480.528L463.75 480.06L463.169 479.586L462.594 479.105L462.026 478.618L461.465 478.125L460.91 477.626L460.362 477.121L459.821 476.611L459.287 476.094L458.76 475.572L458.24 475.045L457.726 474.512L457.22 473.974L456.721 473.432L456.229 472.884L455.744 472.331L455.266 471.774L454.795 471.212L454.332 470.646L453.876 470.075L453.427 469.5L452.985 468.92L452.551 468.337L452.124 467.749L451.704 467.158L451.292 466.563L450.888 465.964L450.491 465.361L450.101 464.755L449.719 464.145L449.345 463.532L448.978 462.916L448.619 462.296L448.268 461.673L447.925 461.048L447.59 460.419L447.262 459.787L446.942 459.153L446.631 458.515L446.327 457.875L446.032 457.233L445.744 456.588L445.465 455.941L445.194 455.291L444.931 454.639L444.677 453.986L444.431 453.33L444.193 452.672L443.964 452.012L443.743 451.351L443.53 450.688L443.326 450.024L443.131 449.358L442.944 448.691L442.765 448.023L442.595 447.354L442.434 446.684L442.281 446.013L442.137 445.341L442.001 444.669L441.874 443.996L441.756 443.323L441.646 442.649L441.545 441.975L441.453 441.302L441.369 440.628L441.294 439.955L441.227 439.281L441.169 438.609L441.12 437.937L441.079 437.265L441.046 436.594L441.022 435.924L441.007 435.255L441 434.587L441.002 433.921L441.012 433.256L441.03 432.592L441.057 431.93L441.092 431.269L441.135 430.61L441.187 429.953L441.246 429.298L441.314 428.646L441.39 427.995L441.474 427.347L441.567 426.701L441.667 426.058L441.775 425.417L441.891 424.78L442.015 424.145L442.147 423.513L442.287 422.884L442.434 422.258L442.589 421.636L442.752 421.017L442.922 420.402L443.1 419.79L443.286 419.182L443.479 418.577L443.68 417.977L443.888 417.38L444.103 416.788L444.326 416.2L444.556 415.616L444.794 415.037L445.039 414.462L445.291 413.892L445.55 413.327L445.816 412.767L446.09 412.211L446.37 411.661L446.658 411.116L446.952 410.576L447.253 410.042L447.561 409.513L447.876 408.99L448.198 408.473L448.526 407.962L448.861 407.456L449.202 406.957L449.549 406.464L449.903 405.977L450.264 405.496L450.63 405.022L451.002 404.555L451.381 404.094L451.765 403.64L452.155 403.193L452.55 402.753L452.951 402.32L453.358 401.895L453.77 401.476L454.186 401.065L454.608 400.661L455.035 400.264L455.466 399.875L455.902 399.493L456.342 399.12L456.787 398.753L457.235 398.394L457.687 398.043L458.143 397.7L458.603 397.364L459.065 397.036L459.531 396.715L459.999 396.402L460.471 396.097L460.944 395.799L461.42 395.509L461.898 395.226L462.378 394.951L462.86 394.683L463.343 394.422L463.827 394.168L464.312 393.921L464.799 393.682L465.286 393.449L465.773 393.223L466.261 393.004L466.75 392.791L467.238 392.585L467.726 392.385L468.214 392.191L468.701 392.003L469.188 391.821L469.674 391.645L470.159 391.475L470.643 391.31L471.126 391.15L471.608 390.995L472.089 390.846L472.568 390.701L473.045 390.56L473.521 390.424L473.995 390.293L474.467 390.165L474.937 390.042L475.405 389.922L475.872 389.805L476.336 389.692L476.798 389.583L477.258 389.476L477.716 389.372L478.171 389.271L478.625 389.172L479.076 389.076L479.525 388.982L479.972 388.891L480.417 388.801L480.86 388.713L481.301 388.627L481.74 388.543L482.177 388.461L482.612 388.38L483.045 388.3L483.477 388.222L483.907 388.145L484.335 388.069L484.762 387.994L485.187 387.921L485.611 387.849L486.033 387.777L486.455 387.707L486.875 387.637L487.294 387.569L487.713 387.501L488.13 387.435L488.547 387.369L488.963 387.304L489.378 387.241L489.793 387.178L490.208 387.116L490.622 387.056L491.036 386.996L491.45 386.938L491.863 386.88L492.277 386.824L492.691 386.77L493.104 386.716L493.518 386.664L493.933 386.613L494.347 386.564L494.762 386.517L495.177 386.471L495.593 386.426L496.01 386.384L496.427 386.343L496.844 386.305L497.263 386.268L497.682 386.234L498.102 386.201L498.522 386.171L498.943 386.143L499.366 386.117L499.789 386.094L500.213 386.073L500.638 386.055L501.064 386.039L501.491 386.026L501.918 386.015L502.347 386.007L502.777 386.002L503.208 386L503.64 386.001L504.073 386.004L504.507 386.011L504.942 386.02L505.378 386.033L505.815 386.049L506.253 386.069L506.693 386.091L507.133 386.117L507.574 386.147L508.017 386.18L508.46 386.216L508.904 386.256L509.35 386.3L509.796 386.348L510.243 386.4L510.691 386.456L511.14 386.515L511.59 386.579L512.04 386.647L512.492 386.719L512.944 386.795L513.397 386.875L513.851 386.96L514.305 387.049L514.76 387.143L515.215 387.241L515.671 387.343L516.128 387.451L516.585 387.562L517.042 387.679L517.5 387.8L517.959 387.926L518.417 388.056L518.876 388.192L519.335 388.332L519.794 388.478L520.253 388.628L520.713 388.784L521.172 388.944L521.631 389.11L522.09 389.281L522.549 389.458L523.007 389.639L523.465 389.826L523.923 390.019L524.38 390.217L524.836 390.42L525.292 390.629L525.747 390.843L526.202 391.063L526.655 391.288L527.108 391.519L527.559 391.756L528.01 391.998L528.46 392.246L528.908 392.499L529.355 392.758L529.801 393.023L530.246 393.293L530.689 393.569L531.131 393.851L531.571 394.138L532.01 394.431L532.448 394.729L532.884 395.033L533.318 395.343L533.75 395.658L534.181 395.979L534.61 396.305L535.037 396.637L535.463 396.975L535.887 397.318L536.308 397.667L536.728 398.021L537.146 398.381L537.561 398.746L537.975 399.117L538.386 399.494L538.796 399.876L539.203 400.264L539.608 400.657L540.01 401.056L540.41 401.46L540.807 401.871L541.202 402.286L541.594 402.708L541.984 403.135L542.37 403.567L542.754 404.006L543.134 404.45L543.512 404.9L543.886 405.355L544.256 405.817L544.624 406.284L544.987 406.756L545.347 407.235L545.704 407.719L546.056 408.209L546.404 408.704L546.748 409.206L547.088 409.713L547.424 410.225L547.755 410.744L548.082 411.268L548.404 411.797L548.721 412.333L549.033 412.873L549.34 413.42L549.642 413.971L549.939 414.529L550.23 415.091L550.516 415.66L550.796 416.233L551.07 416.812L551.339 417.396L551.601 417.985L551.857 418.58L552.107 419.179L552.35 419.784L552.587 420.393L552.817 421.008L553.04 421.627L553.256 422.251L553.465 422.88L553.667 423.513" fill="url(#paint1_linear_99_140)"/>
</g>
<path d="M462.052 415.011L500.026 393L538 415.011L500.026 437.021L462.052 415.011Z" fill="url(#paint2_linear_99_140)"/>
<path d="M537.917 414.962L537.915 458.986L499.943 481L499.944 436.976L537.917 414.962Z" fill="url(#paint3_linear_99_140)"/>
<path d="M499.974 481L499.972 436.976L462 414.962L462.002 458.986L499.974 481Z" fill="url(#paint4_linear_99_140)"/>
<defs>
<filter id="filter0_f_99_140" x="361" y="306" width="275" height="267" filterUnits="userSpaceOnUse" color-interpolation-filters="sRGB">
<feFlood flood-opacity="0" result="BackgroundImageFix"/>
<feBlend mode="normal" in="SourceGraphic" in2="BackgroundImageFix" result="shape"/>
<feGaussianBlur stdDeviation="40" result="effect1_foregroundBlur_99_140"/>
</filter>
<linearGradient id="paint0_linear_99_140" x1="459" y1="408.5" x2="502.577" y2="488.095" gradientUnits="userSpaceOnUse">
<stop stop-color="#2B4778"/>
<stop offset="1" stop-color="#2F6934"/>
</linearGradient>
<linearGradient id="paint1_linear_99_140" x1="459" y1="408.5" x2="502.577" y2="488.095" gradientUnits="userSpaceOnUse">
<stop stop-color="#2B4778"/>
<stop offset="1" stop-color="#2F6934"/>
</linearGradient>
<linearGradient id="paint2_linear_99_140" x1="501.558" y1="478.95" x2="501.558" y2="363.353" gradientUnits="userSpaceOnUse">
<stop stop-color="#4DFFDF"/>
<stop offset="1" stop-color="#262E58"/>
</linearGradient>
<linearGradient id="paint3_linear_99_140" x1="501.323" y1="503.18" x2="492.875" y2="344.289" gradientUnits="userSpaceOnUse">
<stop stop-color="#2E9986"/>
<stop offset="1" stop-color="#4DFFDF"/>
</linearGradient>
<linearGradient id="paint4_linear_99_140" x1="518.126" y1="469.621" x2="456.973" y2="469.341" gradientUnits="userSpaceOnUse">
<stop stop-color="#2E9986"/>
<stop offset="0.0001" stop-color="#2E9986"/>
<stop offset="1" stop-color="#262E58"/>
</linearGradient>
</defs>
</svg>
