<svg width="700" height="700" viewBox="0 0 700 700" fill="none" xmlns="http://www.w3.org/2000/svg">
<g filter="url(#filter0_f_99_48)">
<path fill-rule="evenodd" clip-rule="evenodd" d="M252.667 247.513V247.513L252.862 248.151L253.049 248.793L253.228 249.439L253.4 250.09L253.563 250.745L253.719 251.403L253.866 252.066L254.005 252.733L254.135 253.403L254.257 254.076L254.37 254.753L254.474 255.434L254.569 256.117L254.655 256.804L254.732 257.493L254.799 258.185L254.857 258.879L254.905 259.576L254.944 260.275L254.972 260.976L254.991 261.68L255 262.384L254.999 263.091L254.988 263.799L254.966 264.508L254.935 265.218L254.893 265.929L254.841 266.641L254.778 267.353L254.705 268.066L254.622 268.779L254.528 269.492L254.424 270.205L254.31 270.917L254.184 271.629L254.049 272.341L253.903 273.052L253.747 273.762L253.58 274.47L253.403 275.178L253.215 275.884L253.017 276.588L252.809 277.291L252.59 277.991L252.361 278.69L252.122 279.386L251.873 280.08L251.614 280.771L251.345 281.46L251.065 282.146L250.776 282.829L250.476 283.508L250.167 284.185L249.848 284.857L249.519 285.526L249.18 286.192L248.832 286.853L248.474 287.511L248.106 288.164L247.729 288.812L247.342 289.456L246.947 290.096L246.541 290.73L246.127 291.36L245.703 291.985L245.271 292.604L244.829 293.218L244.379 293.827L243.92 294.43L243.452 295.027L242.976 295.619L242.492 296.205L241.999 296.784L241.498 297.358L240.988 297.925L240.471 298.486L239.946 299.041L239.413 299.589L238.872 300.131L238.324 300.666L237.769 301.194L237.206 301.715L236.635 302.229L236.058 302.736L235.473 303.236L234.882 303.729L234.284 304.214L233.679 304.692L233.067 305.162L232.449 305.625L231.825 306.08L231.194 306.527L230.557 306.966L229.914 307.397L229.265 307.82L228.61 308.235L227.95 308.642L227.283 309.04L226.612 309.43L225.935 309.811L225.252 310.183L224.564 310.547L223.871 310.902L223.174 311.247L222.471 311.584L221.764 311.911L221.052 312.229L220.335 312.538L219.614 312.837L218.889 313.127L218.16 313.406L217.427 313.676L216.69 313.936L215.949 314.187L215.205 314.427L214.458 314.656L213.707 314.876L212.953 315.085L212.195 315.284L211.436 315.472L210.673 315.649L209.908 315.816L209.141 315.972L208.371 316.118L207.6 316.252L206.826 316.376L206.051 316.488L205.274 316.589L204.496 316.68L203.717 316.759L202.937 316.827L202.156 316.884L201.375 316.93L200.593 316.964L199.81 316.987L199.028 316.999L198.245 317L197.463 316.99L196.682 316.968L195.901 316.935L195.12 316.891L194.341 316.836L193.563 316.769L192.786 316.692L192.011 316.603L191.237 316.504L190.465 316.394L189.696 316.272L188.928 316.14L188.163 315.997L187.4 315.844L186.64 315.68L185.882 315.505L185.128 315.32L184.377 315.124L183.629 314.918L182.885 314.703L182.144 314.477L181.407 314.241L180.673 313.995L179.944 313.739L179.219 313.474L178.498 313.199L177.781 312.915L177.069 312.622L176.362 312.319L175.659 312.008L174.961 311.687L174.268 311.358L173.58 311.02L172.897 310.674L172.22 310.319L171.548 309.955L170.881 309.584L170.22 309.204L169.564 308.817L168.914 308.421L168.271 308.018L167.632 307.608L167 307.189L166.374 306.764L165.755 306.33L165.141 305.89L164.534 305.443L163.933 304.989L163.338 304.528L162.75 304.06L162.169 303.586L161.594 303.105L161.026 302.618L160.465 302.125L159.91 301.626L159.362 301.121L158.821 300.611L158.287 300.094L157.76 299.572L157.239 299.045L156.726 298.512L156.22 297.974L155.721 297.432L155.229 296.884L154.744 296.331L154.266 295.774L153.795 295.212L153.332 294.646L152.876 294.075L152.427 293.5L151.985 292.92L151.551 292.337L151.124 291.749L150.704 291.158L150.292 290.563L149.888 289.964L149.491 289.361L149.101 288.755L148.719 288.145L148.345 287.532L147.978 286.916L147.619 286.296L147.268 285.673L146.925 285.048L146.589 284.419L146.262 283.787L145.942 283.153L145.631 282.515L145.327 281.875L145.032 281.233L144.744 280.588L144.465 279.941L144.194 279.291L143.931 278.639L143.677 277.986L143.431 277.33L143.193 276.672L142.963 276.012L142.743 275.351L142.53 274.688L142.326 274.024L142.13 273.358L141.943 272.691L141.765 272.023L141.595 271.354L141.434 270.684L141.281 270.013L141.137 269.341L141.001 268.669L140.874 267.996L140.756 267.323L140.646 266.649L140.545 265.975L140.453 265.302L140.369 264.628L140.294 263.955L140.227 263.281L140.169 262.609L140.119 261.937L140.079 261.265L140.046 260.594L140.022 259.924L140.007 259.255L140 258.587L140.002 257.921L140.012 257.256L140.03 256.592L140.057 255.93L140.092 255.269L140.135 254.61L140.186 253.953L140.246 253.298L140.314 252.646L140.39 251.995L140.474 251.347L140.567 250.701L140.667 250.058L140.775 249.417L140.891 248.78L141.015 248.145L141.147 247.513L141.287 246.884L141.434 246.258L141.589 245.636L141.752 245.017L141.922 244.402L142.1 243.79L142.286 243.182L142.479 242.577L142.68 241.977L142.888 241.38L143.103 240.788L143.326 240.2L143.556 239.616L143.794 239.037L144.039 238.462L144.291 237.892L144.55 237.327L144.816 236.767L145.09 236.211L145.37 235.661L145.658 235.116L145.952 234.576L146.253 234.042L146.561 233.513L146.876 232.99L147.198 232.473L147.526 231.962L147.861 231.456L148.202 230.957L148.549 230.464L148.903 229.977L149.264 229.496L149.63 229.022L150.002 228.555L150.381 228.094L150.765 227.64L151.155 227.193L151.55 226.753L151.951 226.32L152.358 225.895L152.77 225.476L153.186 225.065L153.608 224.661L154.035 224.264L154.466 223.875L154.902 223.493L155.342 223.12L155.787 222.753L156.235 222.394L156.687 222.043L157.143 221.7L157.603 221.364L158.065 221.036L158.531 220.715L158.999 220.402L159.471 220.097L159.944 219.799L160.42 219.509L160.898 219.226L161.378 218.951L161.86 218.683L162.343 218.422L162.827 218.168L163.312 217.921L163.799 217.682L164.286 217.449L164.773 217.223L165.261 217.004L165.749 216.791L166.238 216.585L166.726 216.385L167.214 216.191L167.701 216.003L168.188 215.821L168.674 215.645L169.159 215.475L169.643 215.31L170.126 215.15L170.608 214.995L171.088 214.846L171.567 214.701L172.045 214.56L172.521 214.424L172.995 214.293L173.467 214.165L173.937 214.042L174.405 213.922L174.872 213.805L175.336 213.692L175.798 213.583L176.258 213.476L176.716 213.372L177.171 213.271L177.625 213.172L178.076 213.076L178.525 212.982L178.972 212.891L179.417 212.801L179.86 212.713L180.301 212.627L180.74 212.543L181.177 212.461L181.612 212.38L182.045 212.3L182.477 212.222L182.906 212.145L183.335 212.069L183.761 211.994L184.187 211.921L184.611 211.849L185.033 211.777L185.455 211.707L185.875 211.637L186.294 211.569L186.713 211.501L187.13 211.435L187.547 211.369L187.963 211.304L188.378 211.241L188.793 211.178L189.208 211.116L189.622 211.056L190.036 210.996L190.45 210.938L190.863 210.88L191.277 210.824L191.691 210.77L192.104 210.716L192.518 210.664L192.933 210.613L193.347 210.564L193.762 210.517L194.177 210.471L194.593 210.426L195.01 210.384L195.427 210.343L195.844 210.305L196.263 210.268L196.682 210.234L197.101 210.201L197.522 210.171L197.943 210.143L198.366 210.117L198.789 210.094L199.213 210.073L199.638 210.055L200.064 210.039L200.49 210.026L200.918 210.015L201.347 210.007L201.777 210.002L202.208 210L202.64 210.001L203.073 210.004L203.507 210.011L203.942 210.02L204.378 210.033L204.815 210.049L205.253 210.069L205.693 210.091L206.133 210.117L206.574 210.147L207.016 210.18L207.46 210.216L207.904 210.256L208.349 210.3L208.796 210.348L209.243 210.4L209.691 210.456L210.14 210.515L210.59 210.579L211.04 210.647L211.492 210.719L211.944 210.795L212.397 210.875L212.85 210.96L213.305 211.049L213.76 211.143L214.215 211.241L214.671 211.343L215.128 211.451L215.585 211.562L216.042 211.679L216.5 211.8L216.959 211.926L217.417 212.056L217.876 212.192L218.335 212.332L218.794 212.478L219.253 212.628L219.713 212.784L220.172 212.944L220.631 213.11L221.09 213.281L221.549 213.458L222.007 213.639L222.465 213.826L222.923 214.019L223.38 214.217L223.836 214.42L224.292 214.629L224.747 214.843L225.201 215.063L225.655 215.288L226.108 215.519L226.559 215.756L227.01 215.998L227.459 216.246L227.908 216.499L228.355 216.758L228.801 217.023L229.246 217.293L229.689 217.569L230.131 217.851L230.571 218.138L231.01 218.431L231.448 218.729L231.884 219.033L232.318 219.343L232.75 219.658L233.181 219.979L233.61 220.305L234.037 220.637L234.463 220.975L234.886 221.318L235.308 221.667L235.728 222.021L236.146 222.381L236.561 222.746L236.975 223.117L237.386 223.494L237.796 223.876L238.203 224.264L238.607 224.657L239.01 225.056L239.41 225.46L239.807 225.871L240.202 226.286L240.594 226.708L240.984 227.135L241.37 227.567L241.754 228.006L242.134 228.45L242.512 228.9L242.886 229.355L243.256 229.817L243.624 230.284L243.987 230.756L244.347 231.235L244.704 231.719L245.056 232.209L245.404 232.704L245.748 233.206L246.088 233.713L246.424 234.225L246.755 234.744L247.082 235.268L247.404 235.797L247.721 236.333L248.033 236.873L248.34 237.42L248.642 237.971L248.939 238.529L249.23 239.091L249.516 239.66L249.796 240.233L250.07 240.812L250.338 241.396L250.601 241.985L250.857 242.58L251.107 243.179L251.35 243.784L251.587 244.393L251.817 245.008L252.04 245.627L252.256 246.251L252.465 246.88L252.667 247.513" fill="url(#paint0_linear_99_48)"/>
<path fill-rule="evenodd" clip-rule="evenodd" d="M252.667 247.513V247.513L252.862 248.151L253.049 248.793L253.228 249.439L253.4 250.09L253.563 250.745L253.719 251.403L253.866 252.066L254.005 252.733L254.135 253.403L254.257 254.076L254.37 254.753L254.474 255.434L254.569 256.117L254.655 256.804L254.732 257.493L254.799 258.185L254.857 258.879L254.905 259.576L254.944 260.275L254.972 260.976L254.991 261.68L255 262.384L254.999 263.091L254.988 263.799L254.966 264.508L254.935 265.218L254.893 265.929L254.841 266.641L254.778 267.353L254.705 268.066L254.622 268.779L254.528 269.492L254.424 270.205L254.31 270.917L254.184 271.629L254.049 272.341L253.903 273.052L253.747 273.762L253.58 274.47L253.403 275.178L253.215 275.884L253.017 276.588L252.809 277.291L252.59 277.991L252.361 278.69L252.122 279.386L251.873 280.08L251.614 280.771L251.345 281.46L251.065 282.146L250.776 282.829L250.476 283.508L250.167 284.185L249.848 284.857L249.519 285.526L249.18 286.192L248.832 286.853L248.474 287.511L248.106 288.164L247.729 288.812L247.342 289.456L246.947 290.096L246.541 290.73L246.127 291.36L245.703 291.985L245.271 292.604L244.829 293.218L244.379 293.827L243.92 294.43L243.452 295.027L242.976 295.619L242.492 296.205L241.999 296.784L241.498 297.358L240.988 297.925L240.471 298.486L239.946 299.041L239.413 299.589L238.872 300.131L238.324 300.666L237.769 301.194L237.206 301.715L236.635 302.229L236.058 302.736L235.473 303.236L234.882 303.729L234.284 304.214L233.679 304.692L233.067 305.162L232.449 305.625L231.825 306.08L231.194 306.527L230.557 306.966L229.914 307.397L229.265 307.82L228.61 308.235L227.95 308.642L227.283 309.04L226.612 309.43L225.935 309.811L225.252 310.183L224.564 310.547L223.871 310.902L223.174 311.247L222.471 311.584L221.764 311.911L221.052 312.229L220.335 312.538L219.614 312.837L218.889 313.127L218.16 313.406L217.427 313.676L216.69 313.936L215.949 314.187L215.205 314.427L214.458 314.656L213.707 314.876L212.953 315.085L212.195 315.284L211.436 315.472L210.673 315.649L209.908 315.816L209.141 315.972L208.371 316.118L207.6 316.252L206.826 316.376L206.051 316.488L205.274 316.589L204.496 316.68L203.717 316.759L202.937 316.827L202.156 316.884L201.375 316.93L200.593 316.964L199.81 316.987L199.028 316.999L198.245 317L197.463 316.99L196.682 316.968L195.901 316.935L195.12 316.891L194.341 316.836L193.563 316.769L192.786 316.692L192.011 316.603L191.237 316.504L190.465 316.394L189.696 316.272L188.928 316.14L188.163 315.997L187.4 315.844L186.64 315.68L185.882 315.505L185.128 315.32L184.377 315.124L183.629 314.918L182.885 314.703L182.144 314.477L181.407 314.241L180.673 313.995L179.944 313.739L179.219 313.474L178.498 313.199L177.781 312.915L177.069 312.622L176.362 312.319L175.659 312.008L174.961 311.687L174.268 311.358L173.58 311.02L172.897 310.674L172.22 310.319L171.548 309.955L170.881 309.584L170.22 309.204L169.564 308.817L168.914 308.421L168.271 308.018L167.632 307.608L167 307.189L166.374 306.764L165.755 306.33L165.141 305.89L164.534 305.443L163.933 304.989L163.338 304.528L162.75 304.06L162.169 303.586L161.594 303.105L161.026 302.618L160.465 302.125L159.91 301.626L159.362 301.121L158.821 300.611L158.287 300.094L157.76 299.572L157.239 299.045L156.726 298.512L156.22 297.974L155.721 297.432L155.229 296.884L154.744 296.331L154.266 295.774L153.795 295.212L153.332 294.646L152.876 294.075L152.427 293.5L151.985 292.92L151.551 292.337L151.124 291.749L150.704 291.158L150.292 290.563L149.888 289.964L149.491 289.361L149.101 288.755L148.719 288.145L148.345 287.532L147.978 286.916L147.619 286.296L147.268 285.673L146.925 285.048L146.589 284.419L146.262 283.787L145.942 283.153L145.631 282.515L145.327 281.875L145.032 281.233L144.744 280.588L144.465 279.941L144.194 279.291L143.931 278.639L143.677 277.986L143.431 277.33L143.193 276.672L142.963 276.012L142.743 275.351L142.53 274.688L142.326 274.024L142.13 273.358L141.943 272.691L141.765 272.023L141.595 271.354L141.434 270.684L141.281 270.013L141.137 269.341L141.001 268.669L140.874 267.996L140.756 267.323L140.646 266.649L140.545 265.975L140.453 265.302L140.369 264.628L140.294 263.955L140.227 263.281L140.169 262.609L140.119 261.937L140.079 261.265L140.046 260.594L140.022 259.924L140.007 259.255L140 258.587L140.002 257.921L140.012 257.256L140.03 256.592L140.057 255.93L140.092 255.269L140.135 254.61L140.186 253.953L140.246 253.298L140.314 252.646L140.39 251.995L140.474 251.347L140.567 250.701L140.667 250.058L140.775 249.417L140.891 248.78L141.015 248.145L141.147 247.513L141.287 246.884L141.434 246.258L141.589 245.636L141.752 245.017L141.922 244.402L142.1 243.79L142.286 243.182L142.479 242.577L142.68 241.977L142.888 241.38L143.103 240.788L143.326 240.2L143.556 239.616L143.794 239.037L144.039 238.462L144.291 237.892L144.55 237.327L144.816 236.767L145.09 236.211L145.37 235.661L145.658 235.116L145.952 234.576L146.253 234.042L146.561 233.513L146.876 232.99L147.198 232.473L147.526 231.962L147.861 231.456L148.202 230.957L148.549 230.464L148.903 229.977L149.264 229.496L149.63 229.022L150.002 228.555L150.381 228.094L150.765 227.64L151.155 227.193L151.55 226.753L151.951 226.32L152.358 225.895L152.77 225.476L153.186 225.065L153.608 224.661L154.035 224.264L154.466 223.875L154.902 223.493L155.342 223.12L155.787 222.753L156.235 222.394L156.687 222.043L157.143 221.7L157.603 221.364L158.065 221.036L158.531 220.715L158.999 220.402L159.471 220.097L159.944 219.799L160.42 219.509L160.898 219.226L161.378 218.951L161.86 218.683L162.343 218.422L162.827 218.168L163.312 217.921L163.799 217.682L164.286 217.449L164.773 217.223L165.261 217.004L165.749 216.791L166.238 216.585L166.726 216.385L167.214 216.191L167.701 216.003L168.188 215.821L168.674 215.645L169.159 215.475L169.643 215.31L170.126 215.15L170.608 214.995L171.088 214.846L171.567 214.701L172.045 214.56L172.521 214.424L172.995 214.293L173.467 214.165L173.937 214.042L174.405 213.922L174.872 213.805L175.336 213.692L175.798 213.583L176.258 213.476L176.716 213.372L177.171 213.271L177.625 213.172L178.076 213.076L178.525 212.982L178.972 212.891L179.417 212.801L179.86 212.713L180.301 212.627L180.74 212.543L181.177 212.461L181.612 212.38L182.045 212.3L182.477 212.222L182.906 212.145L183.335 212.069L183.761 211.994L184.187 211.921L184.611 211.849L185.033 211.777L185.455 211.707L185.875 211.637L186.294 211.569L186.713 211.501L187.13 211.435L187.547 211.369L187.963 211.304L188.378 211.241L188.793 211.178L189.208 211.116L189.622 211.056L190.036 210.996L190.45 210.938L190.863 210.88L191.277 210.824L191.691 210.77L192.104 210.716L192.518 210.664L192.933 210.613L193.347 210.564L193.762 210.517L194.177 210.471L194.593 210.426L195.01 210.384L195.427 210.343L195.844 210.305L196.263 210.268L196.682 210.234L197.101 210.201L197.522 210.171L197.943 210.143L198.366 210.117L198.789 210.094L199.213 210.073L199.638 210.055L200.064 210.039L200.49 210.026L200.918 210.015L201.347 210.007L201.777 210.002L202.208 210L202.64 210.001L203.073 210.004L203.507 210.011L203.942 210.02L204.378 210.033L204.815 210.049L205.253 210.069L205.693 210.091L206.133 210.117L206.574 210.147L207.016 210.18L207.46 210.216L207.904 210.256L208.349 210.3L208.796 210.348L209.243 210.4L209.691 210.456L210.14 210.515L210.59 210.579L211.04 210.647L211.492 210.719L211.944 210.795L212.397 210.875L212.85 210.96L213.305 211.049L213.76 211.143L214.215 211.241L214.671 211.343L215.128 211.451L215.585 211.562L216.042 211.679L216.5 211.8L216.959 211.926L217.417 212.056L217.876 212.192L218.335 212.332L218.794 212.478L219.253 212.628L219.713 212.784L220.172 212.944L220.631 213.11L221.09 213.281L221.549 213.458L222.007 213.639L222.465 213.826L222.923 214.019L223.38 214.217L223.836 214.42L224.292 214.629L224.747 214.843L225.201 215.063L225.655 215.288L226.108 215.519L226.559 215.756L227.01 215.998L227.459 216.246L227.908 216.499L228.355 216.758L228.801 217.023L229.246 217.293L229.689 217.569L230.131 217.851L230.571 218.138L231.01 218.431L231.448 218.729L231.884 219.033L232.318 219.343L232.75 219.658L233.181 219.979L233.61 220.305L234.037 220.637L234.463 220.975L234.886 221.318L235.308 221.667L235.728 222.021L236.146 222.381L236.561 222.746L236.975 223.117L237.386 223.494L237.796 223.876L238.203 224.264L238.607 224.657L239.01 225.056L239.41 225.46L239.807 225.871L240.202 226.286L240.594 226.708L240.984 227.135L241.37 227.567L241.754 228.006L242.134 228.45L242.512 228.9L242.886 229.355L243.256 229.817L243.624 230.284L243.987 230.756L244.347 231.235L244.704 231.719L245.056 232.209L245.404 232.704L245.748 233.206L246.088 233.713L246.424 234.225L246.755 234.744L247.082 235.268L247.404 235.797L247.721 236.333L248.033 236.873L248.34 237.42L248.642 237.971L248.939 238.529L249.23 239.091L249.516 239.66L249.796 240.233L250.07 240.812L250.338 241.396L250.601 241.985L250.857 242.58L251.107 243.179L251.35 243.784L251.587 244.393L251.817 245.008L252.04 245.627L252.256 246.251L252.465 246.88L252.667 247.513" fill="url(#paint1_linear_99_48)"/>
</g>
<path d="M160.052 240.011L198.026 218L236 240.011L198.026 262.021L160.052 240.011Z" fill="url(#paint2_linear_99_48)"/>
<path d="M235.917 239.962L235.915 283.986L197.943 306L197.944 261.976L235.917 239.962Z" fill="url(#paint3_linear_99_48)"/>
<path d="M197.974 306L197.972 261.976L160 239.962L160.002 283.986L197.974 306Z" fill="url(#paint4_linear_99_48)"/>
<defs>
<filter id="filter0_f_99_48" x="60" y="130" width="275" height="267" filterUnits="userSpaceOnUse" color-interpolation-filters="sRGB">
<feFlood flood-opacity="0" result="BackgroundImageFix"/>
<feBlend mode="normal" in="SourceGraphic" in2="BackgroundImageFix" result="shape"/>
<feGaussianBlur stdDeviation="40" result="effect1_foregroundBlur_99_48"/>
</filter>
<linearGradient id="paint0_linear_99_48" x1="158" y1="232.5" x2="201.576" y2="312.095" gradientUnits="userSpaceOnUse">
<stop stop-color="#2B4778"/>
<stop offset="1" stop-color="#2F6934"/>
</linearGradient>
<linearGradient id="paint1_linear_99_48" x1="158" y1="232.5" x2="201.576" y2="312.095" gradientUnits="userSpaceOnUse">
<stop stop-color="#2B4778"/>
<stop offset="1" stop-color="#2F6934"/>
</linearGradient>
<linearGradient id="paint2_linear_99_48" x1="199.558" y1="303.95" x2="199.558" y2="188.353" gradientUnits="userSpaceOnUse">
<stop stop-color="#4DFFDF"/>
<stop offset="1" stop-color="#262E58"/>
</linearGradient>
<linearGradient id="paint3_linear_99_48" x1="199.323" y1="328.18" x2="190.875" y2="169.289" gradientUnits="userSpaceOnUse">
<stop stop-color="#2E9986"/>
<stop offset="1" stop-color="#4DFFDF"/>
</linearGradient>
<linearGradient id="paint4_linear_99_48" x1="216.126" y1="294.621" x2="154.973" y2="294.341" gradientUnits="userSpaceOnUse">
<stop stop-color="#2E9986"/>
<stop offset="0.0001" stop-color="#2E9986"/>
<stop offset="1" stop-color="#262E58"/>
</linearGradient>
</defs>
</svg>
