<svg width="700" height="700" viewBox="0 0 700 700" fill="none" xmlns="http://www.w3.org/2000/svg">
<g filter="url(#filter0_f_99_117)">
<path fill-rule="evenodd" clip-rule="evenodd" d="M252.667 423.513V423.513L252.862 424.151L253.049 424.793L253.228 425.439L253.4 426.09L253.563 426.745L253.719 427.403L253.866 428.066L254.005 428.733L254.135 429.403L254.257 430.076L254.37 430.753L254.474 431.434L254.569 432.117L254.655 432.804L254.732 433.493L254.799 434.185L254.857 434.879L254.905 435.576L254.944 436.275L254.972 436.976L254.991 437.68L255 438.384L254.999 439.091L254.988 439.799L254.966 440.508L254.935 441.218L254.893 441.929L254.841 442.641L254.778 443.353L254.705 444.066L254.622 444.779L254.528 445.492L254.424 446.205L254.31 446.917L254.184 447.629L254.049 448.341L253.903 449.052L253.747 449.762L253.58 450.47L253.403 451.178L253.215 451.884L253.017 452.588L252.809 453.291L252.59 453.991L252.361 454.69L252.122 455.386L251.873 456.08L251.614 456.771L251.345 457.46L251.065 458.146L250.776 458.829L250.476 459.508L250.167 460.185L249.848 460.857L249.519 461.526L249.18 462.192L248.832 462.853L248.474 463.511L248.106 464.164L247.729 464.812L247.342 465.456L246.947 466.096L246.541 466.73L246.127 467.36L245.703 467.985L245.271 468.604L244.829 469.218L244.379 469.827L243.92 470.43L243.452 471.027L242.976 471.619L242.492 472.205L241.999 472.784L241.498 473.358L240.988 473.925L240.471 474.486L239.946 475.041L239.413 475.589L238.872 476.131L238.324 476.666L237.769 477.194L237.206 477.715L236.635 478.229L236.058 478.736L235.473 479.236L234.882 479.729L234.284 480.214L233.679 480.692L233.067 481.162L232.449 481.625L231.825 482.08L231.194 482.527L230.557 482.966L229.914 483.397L229.265 483.82L228.61 484.235L227.95 484.642L227.283 485.04L226.612 485.43L225.935 485.811L225.252 486.183L224.564 486.547L223.871 486.902L223.174 487.247L222.471 487.584L221.764 487.911L221.052 488.229L220.335 488.538L219.614 488.837L218.889 489.127L218.16 489.406L217.427 489.676L216.69 489.936L215.949 490.187L215.205 490.427L214.458 490.656L213.707 490.876L212.953 491.085L212.195 491.284L211.436 491.472L210.673 491.649L209.908 491.816L209.141 491.972L208.371 492.118L207.6 492.252L206.826 492.376L206.051 492.488L205.274 492.589L204.496 492.68L203.717 492.759L202.937 492.827L202.156 492.884L201.375 492.93L200.593 492.964L199.81 492.987L199.028 492.999L198.245 493L197.463 492.99L196.682 492.968L195.901 492.935L195.12 492.891L194.341 492.836L193.563 492.769L192.786 492.692L192.011 492.603L191.237 492.504L190.465 492.394L189.696 492.272L188.928 492.14L188.163 491.997L187.4 491.844L186.64 491.68L185.882 491.505L185.128 491.32L184.377 491.124L183.629 490.918L182.885 490.703L182.144 490.477L181.407 490.241L180.673 489.995L179.944 489.739L179.219 489.474L178.498 489.199L177.781 488.915L177.069 488.622L176.362 488.319L175.659 488.008L174.961 487.687L174.268 487.358L173.58 487.02L172.897 486.674L172.22 486.319L171.548 485.955L170.881 485.584L170.22 485.204L169.564 484.817L168.914 484.421L168.271 484.018L167.632 483.608L167 483.189L166.374 482.764L165.755 482.33L165.141 481.89L164.534 481.443L163.933 480.989L163.338 480.528L162.75 480.06L162.169 479.586L161.594 479.105L161.026 478.618L160.465 478.125L159.91 477.626L159.362 477.121L158.821 476.611L158.287 476.094L157.76 475.572L157.239 475.045L156.726 474.512L156.22 473.974L155.721 473.432L155.229 472.884L154.744 472.331L154.266 471.774L153.795 471.212L153.332 470.646L152.876 470.075L152.427 469.5L151.985 468.92L151.551 468.337L151.124 467.749L150.704 467.158L150.292 466.563L149.888 465.964L149.491 465.361L149.101 464.755L148.719 464.145L148.345 463.532L147.978 462.916L147.619 462.296L147.268 461.673L146.925 461.048L146.589 460.419L146.262 459.787L145.942 459.153L145.631 458.515L145.327 457.875L145.032 457.233L144.744 456.588L144.465 455.941L144.194 455.291L143.931 454.639L143.677 453.986L143.431 453.33L143.193 452.672L142.963 452.012L142.743 451.351L142.53 450.688L142.326 450.024L142.13 449.358L141.943 448.691L141.765 448.023L141.595 447.354L141.434 446.684L141.281 446.013L141.137 445.341L141.001 444.669L140.874 443.996L140.756 443.323L140.646 442.649L140.545 441.975L140.453 441.302L140.369 440.628L140.294 439.955L140.227 439.281L140.169 438.609L140.119 437.937L140.079 437.265L140.046 436.594L140.022 435.924L140.007 435.255L140 434.587L140.002 433.921L140.012 433.256L140.03 432.592L140.057 431.93L140.092 431.269L140.135 430.61L140.186 429.953L140.246 429.298L140.314 428.646L140.39 427.995L140.474 427.347L140.567 426.701L140.667 426.058L140.775 425.417L140.891 424.78L141.015 424.145L141.147 423.513L141.287 422.884L141.434 422.258L141.589 421.636L141.752 421.017L141.922 420.402L142.1 419.79L142.286 419.182L142.479 418.577L142.68 417.977L142.888 417.38L143.103 416.788L143.326 416.2L143.556 415.616L143.794 415.037L144.039 414.462L144.291 413.892L144.55 413.327L144.816 412.767L145.09 412.211L145.37 411.661L145.658 411.116L145.952 410.576L146.253 410.042L146.561 409.513L146.876 408.99L147.198 408.473L147.526 407.962L147.861 407.456L148.202 406.957L148.549 406.464L148.903 405.977L149.264 405.496L149.63 405.022L150.002 404.555L150.381 404.094L150.765 403.64L151.155 403.193L151.55 402.753L151.951 402.32L152.358 401.895L152.77 401.476L153.186 401.065L153.608 400.661L154.035 400.264L154.466 399.875L154.902 399.493L155.342 399.12L155.787 398.753L156.235 398.394L156.687 398.043L157.143 397.7L157.603 397.364L158.065 397.036L158.531 396.715L158.999 396.402L159.471 396.097L159.944 395.799L160.42 395.509L160.898 395.226L161.378 394.951L161.86 394.683L162.343 394.422L162.827 394.168L163.312 393.921L163.799 393.682L164.286 393.449L164.773 393.223L165.261 393.004L165.749 392.791L166.238 392.585L166.726 392.385L167.214 392.191L167.701 392.003L168.188 391.821L168.674 391.645L169.159 391.475L169.643 391.31L170.126 391.15L170.608 390.995L171.088 390.846L171.567 390.701L172.045 390.56L172.521 390.424L172.995 390.293L173.467 390.165L173.937 390.042L174.405 389.922L174.872 389.805L175.336 389.692L175.798 389.583L176.258 389.476L176.716 389.372L177.171 389.271L177.625 389.172L178.076 389.076L178.525 388.982L178.972 388.891L179.417 388.801L179.86 388.713L180.301 388.627L180.74 388.543L181.177 388.461L181.612 388.38L182.045 388.3L182.477 388.222L182.906 388.145L183.335 388.069L183.761 387.994L184.187 387.921L184.611 387.849L185.033 387.777L185.455 387.707L185.875 387.637L186.294 387.569L186.713 387.501L187.13 387.435L187.547 387.369L187.963 387.304L188.378 387.241L188.793 387.178L189.208 387.116L189.622 387.056L190.036 386.996L190.45 386.938L190.863 386.88L191.277 386.824L191.691 386.77L192.104 386.716L192.518 386.664L192.933 386.613L193.347 386.564L193.762 386.517L194.177 386.471L194.593 386.426L195.01 386.384L195.427 386.343L195.844 386.305L196.263 386.268L196.682 386.234L197.101 386.201L197.522 386.171L197.943 386.143L198.366 386.117L198.789 386.094L199.213 386.073L199.638 386.055L200.064 386.039L200.49 386.026L200.918 386.015L201.347 386.007L201.777 386.002L202.208 386L202.64 386.001L203.073 386.004L203.507 386.011L203.942 386.02L204.378 386.033L204.815 386.049L205.253 386.069L205.693 386.091L206.133 386.117L206.574 386.147L207.016 386.18L207.46 386.216L207.904 386.256L208.349 386.3L208.796 386.348L209.243 386.4L209.691 386.456L210.14 386.515L210.59 386.579L211.04 386.647L211.492 386.719L211.944 386.795L212.397 386.875L212.85 386.96L213.305 387.049L213.76 387.143L214.215 387.241L214.671 387.343L215.128 387.451L215.585 387.562L216.042 387.679L216.5 387.8L216.959 387.926L217.417 388.056L217.876 388.192L218.335 388.332L218.794 388.478L219.253 388.628L219.713 388.784L220.172 388.944L220.631 389.11L221.09 389.281L221.549 389.458L222.007 389.639L222.465 389.826L222.923 390.019L223.38 390.217L223.836 390.42L224.292 390.629L224.747 390.843L225.201 391.063L225.655 391.288L226.108 391.519L226.559 391.756L227.01 391.998L227.459 392.246L227.908 392.499L228.355 392.758L228.801 393.023L229.246 393.293L229.689 393.569L230.131 393.851L230.571 394.138L231.01 394.431L231.448 394.729L231.884 395.033L232.318 395.343L232.75 395.658L233.181 395.979L233.61 396.305L234.037 396.637L234.463 396.975L234.886 397.318L235.308 397.667L235.728 398.021L236.146 398.381L236.561 398.746L236.975 399.117L237.386 399.494L237.796 399.876L238.203 400.264L238.607 400.657L239.01 401.056L239.41 401.46L239.807 401.871L240.202 402.286L240.594 402.708L240.984 403.135L241.37 403.567L241.754 404.006L242.134 404.45L242.512 404.9L242.886 405.355L243.256 405.817L243.624 406.284L243.987 406.756L244.347 407.235L244.704 407.719L245.056 408.209L245.404 408.704L245.748 409.206L246.088 409.713L246.424 410.225L246.755 410.744L247.082 411.268L247.404 411.797L247.721 412.333L248.033 412.873L248.34 413.42L248.642 413.971L248.939 414.529L249.23 415.091L249.516 415.66L249.796 416.233L250.07 416.812L250.338 417.396L250.601 417.985L250.857 418.58L251.107 419.179L251.35 419.784L251.587 420.393L251.817 421.008L252.04 421.627L252.256 422.251L252.465 422.88L252.667 423.513" fill="url(#paint0_linear_99_117)"/>
<path fill-rule="evenodd" clip-rule="evenodd" d="M252.667 423.513V423.513L252.862 424.151L253.049 424.793L253.228 425.439L253.4 426.09L253.563 426.745L253.719 427.403L253.866 428.066L254.005 428.733L254.135 429.403L254.257 430.076L254.37 430.753L254.474 431.434L254.569 432.117L254.655 432.804L254.732 433.493L254.799 434.185L254.857 434.879L254.905 435.576L254.944 436.275L254.972 436.976L254.991 437.68L255 438.384L254.999 439.091L254.988 439.799L254.966 440.508L254.935 441.218L254.893 441.929L254.841 442.641L254.778 443.353L254.705 444.066L254.622 444.779L254.528 445.492L254.424 446.205L254.31 446.917L254.184 447.629L254.049 448.341L253.903 449.052L253.747 449.762L253.58 450.47L253.403 451.178L253.215 451.884L253.017 452.588L252.809 453.291L252.59 453.991L252.361 454.69L252.122 455.386L251.873 456.08L251.614 456.771L251.345 457.46L251.065 458.146L250.776 458.829L250.476 459.508L250.167 460.185L249.848 460.857L249.519 461.526L249.18 462.192L248.832 462.853L248.474 463.511L248.106 464.164L247.729 464.812L247.342 465.456L246.947 466.096L246.541 466.73L246.127 467.36L245.703 467.985L245.271 468.604L244.829 469.218L244.379 469.827L243.92 470.43L243.452 471.027L242.976 471.619L242.492 472.205L241.999 472.784L241.498 473.358L240.988 473.925L240.471 474.486L239.946 475.041L239.413 475.589L238.872 476.131L238.324 476.666L237.769 477.194L237.206 477.715L236.635 478.229L236.058 478.736L235.473 479.236L234.882 479.729L234.284 480.214L233.679 480.692L233.067 481.162L232.449 481.625L231.825 482.08L231.194 482.527L230.557 482.966L229.914 483.397L229.265 483.82L228.61 484.235L227.95 484.642L227.283 485.04L226.612 485.43L225.935 485.811L225.252 486.183L224.564 486.547L223.871 486.902L223.174 487.247L222.471 487.584L221.764 487.911L221.052 488.229L220.335 488.538L219.614 488.837L218.889 489.127L218.16 489.406L217.427 489.676L216.69 489.936L215.949 490.187L215.205 490.427L214.458 490.656L213.707 490.876L212.953 491.085L212.195 491.284L211.436 491.472L210.673 491.649L209.908 491.816L209.141 491.972L208.371 492.118L207.6 492.252L206.826 492.376L206.051 492.488L205.274 492.589L204.496 492.68L203.717 492.759L202.937 492.827L202.156 492.884L201.375 492.93L200.593 492.964L199.81 492.987L199.028 492.999L198.245 493L197.463 492.99L196.682 492.968L195.901 492.935L195.12 492.891L194.341 492.836L193.563 492.769L192.786 492.692L192.011 492.603L191.237 492.504L190.465 492.394L189.696 492.272L188.928 492.14L188.163 491.997L187.4 491.844L186.64 491.68L185.882 491.505L185.128 491.32L184.377 491.124L183.629 490.918L182.885 490.703L182.144 490.477L181.407 490.241L180.673 489.995L179.944 489.739L179.219 489.474L178.498 489.199L177.781 488.915L177.069 488.622L176.362 488.319L175.659 488.008L174.961 487.687L174.268 487.358L173.58 487.02L172.897 486.674L172.22 486.319L171.548 485.955L170.881 485.584L170.22 485.204L169.564 484.817L168.914 484.421L168.271 484.018L167.632 483.608L167 483.189L166.374 482.764L165.755 482.33L165.141 481.89L164.534 481.443L163.933 480.989L163.338 480.528L162.75 480.06L162.169 479.586L161.594 479.105L161.026 478.618L160.465 478.125L159.91 477.626L159.362 477.121L158.821 476.611L158.287 476.094L157.76 475.572L157.239 475.045L156.726 474.512L156.22 473.974L155.721 473.432L155.229 472.884L154.744 472.331L154.266 471.774L153.795 471.212L153.332 470.646L152.876 470.075L152.427 469.5L151.985 468.92L151.551 468.337L151.124 467.749L150.704 467.158L150.292 466.563L149.888 465.964L149.491 465.361L149.101 464.755L148.719 464.145L148.345 463.532L147.978 462.916L147.619 462.296L147.268 461.673L146.925 461.048L146.589 460.419L146.262 459.787L145.942 459.153L145.631 458.515L145.327 457.875L145.032 457.233L144.744 456.588L144.465 455.941L144.194 455.291L143.931 454.639L143.677 453.986L143.431 453.33L143.193 452.672L142.963 452.012L142.743 451.351L142.53 450.688L142.326 450.024L142.13 449.358L141.943 448.691L141.765 448.023L141.595 447.354L141.434 446.684L141.281 446.013L141.137 445.341L141.001 444.669L140.874 443.996L140.756 443.323L140.646 442.649L140.545 441.975L140.453 441.302L140.369 440.628L140.294 439.955L140.227 439.281L140.169 438.609L140.119 437.937L140.079 437.265L140.046 436.594L140.022 435.924L140.007 435.255L140 434.587L140.002 433.921L140.012 433.256L140.03 432.592L140.057 431.93L140.092 431.269L140.135 430.61L140.186 429.953L140.246 429.298L140.314 428.646L140.39 427.995L140.474 427.347L140.567 426.701L140.667 426.058L140.775 425.417L140.891 424.78L141.015 424.145L141.147 423.513L141.287 422.884L141.434 422.258L141.589 421.636L141.752 421.017L141.922 420.402L142.1 419.79L142.286 419.182L142.479 418.577L142.68 417.977L142.888 417.38L143.103 416.788L143.326 416.2L143.556 415.616L143.794 415.037L144.039 414.462L144.291 413.892L144.55 413.327L144.816 412.767L145.09 412.211L145.37 411.661L145.658 411.116L145.952 410.576L146.253 410.042L146.561 409.513L146.876 408.99L147.198 408.473L147.526 407.962L147.861 407.456L148.202 406.957L148.549 406.464L148.903 405.977L149.264 405.496L149.63 405.022L150.002 404.555L150.381 404.094L150.765 403.64L151.155 403.193L151.55 402.753L151.951 402.32L152.358 401.895L152.77 401.476L153.186 401.065L153.608 400.661L154.035 400.264L154.466 399.875L154.902 399.493L155.342 399.12L155.787 398.753L156.235 398.394L156.687 398.043L157.143 397.7L157.603 397.364L158.065 397.036L158.531 396.715L158.999 396.402L159.471 396.097L159.944 395.799L160.42 395.509L160.898 395.226L161.378 394.951L161.86 394.683L162.343 394.422L162.827 394.168L163.312 393.921L163.799 393.682L164.286 393.449L164.773 393.223L165.261 393.004L165.749 392.791L166.238 392.585L166.726 392.385L167.214 392.191L167.701 392.003L168.188 391.821L168.674 391.645L169.159 391.475L169.643 391.31L170.126 391.15L170.608 390.995L171.088 390.846L171.567 390.701L172.045 390.56L172.521 390.424L172.995 390.293L173.467 390.165L173.937 390.042L174.405 389.922L174.872 389.805L175.336 389.692L175.798 389.583L176.258 389.476L176.716 389.372L177.171 389.271L177.625 389.172L178.076 389.076L178.525 388.982L178.972 388.891L179.417 388.801L179.86 388.713L180.301 388.627L180.74 388.543L181.177 388.461L181.612 388.38L182.045 388.3L182.477 388.222L182.906 388.145L183.335 388.069L183.761 387.994L184.187 387.921L184.611 387.849L185.033 387.777L185.455 387.707L185.875 387.637L186.294 387.569L186.713 387.501L187.13 387.435L187.547 387.369L187.963 387.304L188.378 387.241L188.793 387.178L189.208 387.116L189.622 387.056L190.036 386.996L190.45 386.938L190.863 386.88L191.277 386.824L191.691 386.77L192.104 386.716L192.518 386.664L192.933 386.613L193.347 386.564L193.762 386.517L194.177 386.471L194.593 386.426L195.01 386.384L195.427 386.343L195.844 386.305L196.263 386.268L196.682 386.234L197.101 386.201L197.522 386.171L197.943 386.143L198.366 386.117L198.789 386.094L199.213 386.073L199.638 386.055L200.064 386.039L200.49 386.026L200.918 386.015L201.347 386.007L201.777 386.002L202.208 386L202.64 386.001L203.073 386.004L203.507 386.011L203.942 386.02L204.378 386.033L204.815 386.049L205.253 386.069L205.693 386.091L206.133 386.117L206.574 386.147L207.016 386.18L207.46 386.216L207.904 386.256L208.349 386.3L208.796 386.348L209.243 386.4L209.691 386.456L210.14 386.515L210.59 386.579L211.04 386.647L211.492 386.719L211.944 386.795L212.397 386.875L212.85 386.96L213.305 387.049L213.76 387.143L214.215 387.241L214.671 387.343L215.128 387.451L215.585 387.562L216.042 387.679L216.5 387.8L216.959 387.926L217.417 388.056L217.876 388.192L218.335 388.332L218.794 388.478L219.253 388.628L219.713 388.784L220.172 388.944L220.631 389.11L221.09 389.281L221.549 389.458L222.007 389.639L222.465 389.826L222.923 390.019L223.38 390.217L223.836 390.42L224.292 390.629L224.747 390.843L225.201 391.063L225.655 391.288L226.108 391.519L226.559 391.756L227.01 391.998L227.459 392.246L227.908 392.499L228.355 392.758L228.801 393.023L229.246 393.293L229.689 393.569L230.131 393.851L230.571 394.138L231.01 394.431L231.448 394.729L231.884 395.033L232.318 395.343L232.75 395.658L233.181 395.979L233.61 396.305L234.037 396.637L234.463 396.975L234.886 397.318L235.308 397.667L235.728 398.021L236.146 398.381L236.561 398.746L236.975 399.117L237.386 399.494L237.796 399.876L238.203 400.264L238.607 400.657L239.01 401.056L239.41 401.46L239.807 401.871L240.202 402.286L240.594 402.708L240.984 403.135L241.37 403.567L241.754 404.006L242.134 404.45L242.512 404.9L242.886 405.355L243.256 405.817L243.624 406.284L243.987 406.756L244.347 407.235L244.704 407.719L245.056 408.209L245.404 408.704L245.748 409.206L246.088 409.713L246.424 410.225L246.755 410.744L247.082 411.268L247.404 411.797L247.721 412.333L248.033 412.873L248.34 413.42L248.642 413.971L248.939 414.529L249.23 415.091L249.516 415.66L249.796 416.233L250.07 416.812L250.338 417.396L250.601 417.985L250.857 418.58L251.107 419.179L251.35 419.784L251.587 420.393L251.817 421.008L252.04 421.627L252.256 422.251L252.465 422.88L252.667 423.513" fill="url(#paint1_linear_99_117)"/>
</g>
<path d="M160.052 415.011L198.026 393L236 415.011L198.026 437.021L160.052 415.011Z" fill="url(#paint2_linear_99_117)"/>
<path d="M235.917 414.962L235.915 458.986L197.943 481L197.944 436.976L235.917 414.962Z" fill="url(#paint3_linear_99_117)"/>
<path d="M197.974 481L197.972 436.976L160 414.962L160.002 458.986L197.974 481Z" fill="url(#paint4_linear_99_117)"/>
<defs>
<filter id="filter0_f_99_117" x="60" y="306" width="275" height="267" filterUnits="userSpaceOnUse" color-interpolation-filters="sRGB">
<feFlood flood-opacity="0" result="BackgroundImageFix"/>
<feBlend mode="normal" in="SourceGraphic" in2="BackgroundImageFix" result="shape"/>
<feGaussianBlur stdDeviation="40" result="effect1_foregroundBlur_99_117"/>
</filter>
<linearGradient id="paint0_linear_99_117" x1="158" y1="408.5" x2="201.576" y2="488.095" gradientUnits="userSpaceOnUse">
<stop stop-color="#2B4778"/>
<stop offset="1" stop-color="#2F6934"/>
</linearGradient>
<linearGradient id="paint1_linear_99_117" x1="158" y1="408.5" x2="201.576" y2="488.095" gradientUnits="userSpaceOnUse">
<stop stop-color="#2B4778"/>
<stop offset="1" stop-color="#2F6934"/>
</linearGradient>
<linearGradient id="paint2_linear_99_117" x1="199.558" y1="478.95" x2="199.558" y2="363.353" gradientUnits="userSpaceOnUse">
<stop stop-color="#4DFFDF"/>
<stop offset="1" stop-color="#262E58"/>
</linearGradient>
<linearGradient id="paint3_linear_99_117" x1="199.323" y1="503.18" x2="190.875" y2="344.289" gradientUnits="userSpaceOnUse">
<stop stop-color="#2E9986"/>
<stop offset="1" stop-color="#4DFFDF"/>
</linearGradient>
<linearGradient id="paint4_linear_99_117" x1="216.126" y1="469.621" x2="154.973" y2="469.341" gradientUnits="userSpaceOnUse">
<stop stop-color="#2E9986"/>
<stop offset="0.0001" stop-color="#2E9986"/>
<stop offset="1" stop-color="#262E58"/>
</linearGradient>
</defs>
</svg>
